<svg width="176" height="29" viewBox="0 0 176 29" fill="none" xmlns="http://www.w3.org/2000/svg">
    <g clip-path="url(#clip0_1729_39)">
        <path d="M23.7411 22.8082L24.8237 23.7594C23.5078 25.3083 21.8658 26.5521 20.0135 27.4033C18.1611 28.2545 16.1434 28.6924 14.1022 28.6862C6.52336 28.6862 0.324219 22.7512 0.324219 15.494C0.397253 11.9293 1.88626 8.53767 4.46691 6.05784C7.04756 3.578 10.5108 2.21088 14.1022 2.25427C16.146 2.25531 18.1647 2.70029 20.0169 3.55798C21.869 4.41567 23.5097 5.66529 24.8237 7.21918L23.7411 8.17031C22.5722 6.75443 21.1012 5.61386 19.4344 4.83093C17.7675 4.04799 15.9463 3.64223 14.1022 3.64294C12.5066 3.59806 10.9182 3.87124 9.43079 4.44639C7.94342 5.02153 6.58733 5.88693 5.44275 6.99141C4.29817 8.09588 3.38833 9.41701 2.76704 10.8766C2.14576 12.3362 1.82566 13.9047 1.82566 15.4893C1.82566 17.0738 2.14576 18.6423 2.76704 20.1019C3.38833 21.5615 4.29817 22.8827 5.44275 23.9871C6.58733 25.0916 7.94342 25.957 9.43079 26.5322C10.9182 27.1073 12.5066 27.3805 14.1022 27.3356C15.9432 27.3409 17.7625 26.9411 19.4292 26.1648C21.0959 25.3886 22.5685 24.2552 23.7411 22.8463" fill="#ffffff"></path>
        <path d="M23.7408 22.8083L23.5205 23.0556L24.6032 24.0067L24.8235 23.7594L24.5648 23.5502C23.3534 24.968 21.8626 26.1248 20.1841 26.9494C18.5056 27.774 16.6749 28.2491 14.8046 28.3453C12.9343 28.4415 11.0639 28.1569 9.30853 27.5089C7.55314 26.8609 5.94985 25.8633 4.59728 24.5774C3.35013 23.4075 2.35665 21.9972 1.67765 20.4329C0.998651 18.8686 0.648431 17.1831 0.648431 15.4798C0.648431 13.7765 0.998651 12.091 1.67765 10.5267C2.35665 8.96242 3.35013 7.55212 4.59728 6.38222C5.94727 5.08894 7.55079 4.08509 9.30816 3.43304C11.0655 2.78099 12.9392 2.49469 14.8128 2.59192C16.6863 2.68915 18.5197 3.16784 20.199 3.99824C21.8783 4.82864 23.3676 5.99301 24.5744 7.41898L24.8331 7.20021L24.6127 6.95291L23.5301 7.90404L23.7504 8.15134L23.9995 7.94209C22.8732 6.58561 21.4766 5.47488 19.8974 4.67963C18.3181 3.88438 16.5903 3.42178 14.8224 3.32085C13.0545 3.21993 11.2847 3.48286 9.62403 4.09316C7.96335 4.70345 6.44769 5.64794 5.17216 6.86731C4.00006 7.98076 3.06723 9.31831 2.42995 10.7993C1.79267 12.2803 1.46412 13.8741 1.46412 15.4846C1.46412 17.095 1.79267 18.6888 2.42995 20.1698C3.06723 21.6508 4.00006 22.9884 5.17216 24.1018C6.45246 25.3113 7.96903 26.2474 9.62816 26.8521C11.2873 27.4567 13.0537 27.7172 14.8183 27.6174C16.5828 27.5175 18.308 27.0595 19.8872 26.2716C21.4664 25.4837 22.866 24.3827 23.9995 23.0365L23.7504 22.8273L23.5301 23.0746L23.7504 22.8273L23.4917 22.618C22.4168 23.8956 21.0892 24.9406 19.5911 25.6883C18.0929 26.4361 16.4562 26.8706 14.782 26.9651C13.1079 27.0596 11.4321 26.8121 9.85821 26.2378C8.28435 25.6635 6.84596 24.7746 5.63207 23.6262C4.52096 22.5754 3.6364 21.3115 3.032 19.9111C2.4276 18.5108 2.11596 17.0032 2.11596 15.4798C2.11596 13.9564 2.4276 12.4488 3.032 11.0485C3.6364 9.64813 4.52096 8.38422 5.63207 7.33335C6.84317 6.17832 8.28152 5.28402 9.857 4.70648C11.4325 4.12894 13.1111 3.88062 14.7878 3.97705C16.4644 4.07349 18.1029 4.51262 19.6007 5.26692C21.0984 6.02122 22.4231 7.07444 23.4917 8.36059L23.7121 8.61739L25.293 7.25728L25.0822 7.00997C23.7388 5.41873 22.0602 4.13927 20.1648 3.26173C18.2693 2.38419 16.203 1.92993 14.1116 1.93093C10.433 1.88505 6.8855 3.28542 4.24321 5.82643C1.60092 8.36744 0.0783665 11.8428 0.0078125 15.4941C0.0193847 17.275 0.392771 19.0352 1.10563 20.6695C1.81848 22.3038 2.85616 23.7785 4.15654 25.0054C5.57273 26.3554 7.25253 27.4029 9.09233 28.0835C10.9321 28.7641 12.8929 29.0633 14.8537 28.9626C16.8144 28.8619 18.7336 28.3634 20.4928 27.498C22.252 26.6325 23.814 25.4185 25.0822 23.9306L25.293 23.6833L23.7121 22.3232L23.4917 22.58L23.7408 22.8083Z" fill="#ffffff"></path>
        <path d="M49.6584 8.5409V28.5147H48.3458V26.1083C46.0637 27.8313 43.2596 28.7335 40.3933 28.6669C39.011 28.7087 37.6344 28.4745 36.3451 27.9783C35.0557 27.482 33.8799 26.7339 32.8873 25.7781C31.8947 24.8223 31.1055 23.6784 30.5666 22.4141C30.0277 21.1499 29.75 19.7911 29.75 18.4184C29.75 17.0456 30.0277 15.6869 30.5666 14.4227C31.1055 13.1584 31.8947 12.0145 32.8873 11.0587C33.8799 10.1029 35.0557 9.35476 36.3451 8.85854C37.6344 8.36231 39.011 8.12814 40.3933 8.16995C43.2746 8.11769 46.0851 9.05889 48.3458 10.8331V8.5409H49.6584ZM48.3458 12.3454C46.2092 10.4142 43.396 9.38999 40.5082 9.49203C39.2989 9.4529 38.0939 9.65556 36.965 10.088C35.8361 10.5204 34.8064 11.1737 33.9369 12.0091C33.0675 12.8445 32.3762 13.845 31.904 14.9509C31.4319 16.0569 31.1886 17.2457 31.1886 18.4469C31.1886 19.6481 31.4319 20.837 31.904 21.943C32.3762 23.0489 33.0675 24.0493 33.9369 24.8847C34.8064 25.7201 35.8361 26.3735 36.965 26.8059C38.0939 27.2383 39.2989 27.441 40.5082 27.4018C43.3973 27.5121 46.2136 26.4868 48.3458 24.5484V12.3454Z" fill="#ffffff"></path>
        <path d="M49.661 8.5411H49.3257V28.1915H48.6837V25.4332L48.1472 25.8517C45.9228 27.5308 43.1895 28.4096 40.3958 28.3437C39.0642 28.3487 37.7447 28.0924 36.5132 27.5897C35.2816 27.087 34.1623 26.3476 33.2194 25.4142C32.2843 24.4999 31.5417 23.4102 31.0348 22.2084C30.5279 21.0066 30.2668 19.7167 30.2668 18.4138C30.2668 17.111 30.5279 15.8211 31.0348 14.6192C31.5417 13.4174 32.2843 12.3277 33.2194 11.4135C34.1637 10.4826 35.2835 9.74558 36.5149 9.24455C37.7463 8.74352 39.065 8.4883 40.3958 8.49352C43.2 8.44224 45.9355 9.35638 48.1376 11.0806L48.6837 11.5562V8.86448H49.6419V8.5411V8.20819H48.0035V10.8333H48.3292L48.5496 10.586C46.2267 8.76047 43.339 7.78923 40.3767 7.83724C38.97 7.82847 37.5753 8.09485 36.2723 8.62115C34.9692 9.14745 33.7834 9.9234 32.7825 10.9046C31.7815 11.8859 30.9851 13.0532 30.4387 14.34C29.8922 15.6268 29.6064 17.0079 29.5977 18.4043C29.5971 19.794 29.8736 21.1701 30.4113 22.4532C30.9491 23.7363 31.7374 24.901 32.7308 25.8802C33.7394 26.8738 34.9357 27.66 36.251 28.1937C37.5664 28.7274 38.9749 28.9982 40.3958 28.9904C43.3377 29.0569 46.2154 28.1315 48.5592 26.3653L48.3484 26.1085H48.0226V28.8478H49.9389V8.20819H49.6131L49.661 8.5411ZM48.3484 12.3456L48.5783 12.1173C46.3868 10.1116 43.4902 9.03931 40.5108 9.13079C37.9807 9.12491 35.5476 10.0972 33.7272 11.8415C32.8391 12.6931 32.1327 13.7135 31.6503 14.8418C31.1679 15.9701 30.9193 17.1833 30.9193 18.4091C30.9193 19.6348 31.1679 20.848 31.6503 21.9764C32.1327 23.1047 32.8391 24.1251 33.7272 24.9767C35.5476 26.721 37.9807 27.6933 40.5108 27.6874C43.4805 27.8057 46.378 26.7603 48.5783 24.7769L48.6837 24.6818V12.222L48.5783 12.1269L48.3484 12.3551H48.0226V24.5582H48.3484L48.1184 24.3204C46.0428 26.1869 43.3087 27.1645 40.5108 27.0406C38.1504 27.0525 35.8796 26.1439 34.1871 24.5106C33.3546 23.7216 32.6915 22.7736 32.2375 21.7237C31.7835 20.6737 31.5481 19.5435 31.5454 18.4009C31.5428 17.2583 31.7729 16.127 32.2219 15.075C32.6709 14.023 33.3296 13.0719 34.1584 12.279C35.8547 10.6526 38.1238 9.74819 40.4821 9.75854C43.2892 9.66453 46.0212 10.6687 48.0897 12.5549L48.3196 12.3171L48.3484 12.3456Z" fill="#ffffff"></path>
        <path d="M59.0321 0.570892H57.6523V28.5247H59.0321V0.570892Z" fill="#ffffff"></path>
        <path d="M57.65 0.570516V0.893901H58.7039V28.1914H57.9853V0.570516H57.65V0.893901V0.570516H57.3242V28.8477H59.365V0.247131H57.3242V0.570516H57.65Z" fill="#ffffff"></path>
        <path d="M88.196 20.2402C88.196 25.6807 83.7982 28.8765 77.1967 28.8765C72.3581 28.8765 69.8956 28.439 65.3828 26.2038L67.4811 21.762C70.5476 23.3082 73.961 24.0513 77.3979 23.9211C80.4926 23.9211 82.3514 22.7988 82.3514 20.7158C82.3514 18.8135 80.4351 17.9575 76.3056 16.9969C70.4609 15.6748 65.7661 14.0388 65.7661 8.43668C65.7661 3.48129 69.7615 -0.0379028 76.2481 -0.0379028C79.992 -0.0221981 83.6931 0.754699 87.1229 2.24484L84.7851 6.80073C82.0473 5.66332 79.1272 5.01917 76.1618 4.89847C73.2874 4.89847 71.649 6.18251 71.649 7.9421C71.649 9.93948 73.6611 10.7955 77.9344 11.7466C84.0569 13.1163 88.2535 15.028 88.2535 20.1927" fill="#ffffff"></path>
        <path d="M116.163 23.5595V28.5244H94.3555V0.323334H115.319V5.27873H99.9606V12.4407H112.819V17.244H99.9606V23.5595H116.163Z" fill="#ffffff"></path>
        <path d="M144.208 23.5595V28.5244H122.41V0.323334H143.365V5.27873H128.006V12.4407H140.864V17.244H128.006V23.5595H144.208Z" fill="#ffffff"></path>
        <path d="M162.625 28.5148H150.457V0.313721H161.696C165.473 0.313707 169.096 1.80057 171.77 4.4483C174.445 7.09604 175.952 10.6885 175.963 14.438C175.963 21.9234 170.041 28.5148 162.549 28.5148H162.625ZM162.06 23.2835C166.573 23.2835 170.243 19.1556 170.243 14.438C170.279 12.1269 169.392 9.89551 167.776 8.23109C166.161 6.56667 163.947 5.60441 161.619 5.55444H155.976V23.2835H162.06Z" fill="#ffffff"></path>
    </g>
    <defs>
        <clipPath id="clip0_1729_39">
            <rect width="176" height="29" fill="white"></rect>
        </clipPath>
    </defs>
</svg>