<svg width="678" height="275" viewBox="0 0 678 275" fill="none" xmlns="http://www.w3.org/2000/svg">
<path d="M0 175H669V185C669 191.627 663.627 197 657 197H12C5.3726 197 0 191.627 0 185V175Z" fill="#66D2C7"/>
<path d="M157 175.5C157 149.111 148.729 123.803 134.008 105.143C119.286 86.483 99.3195 76 78.5 76C57.6805 76 37.7137 86.483 22.9921 105.143C8.27052 123.803 3.14366e-06 149.111 0 175.5L78.5 175.5H157Z" fill="#27668A"/>
<path d="M602 42L667.818 175.5H536.182L602 42Z" fill="#27668A"/>
<rect x="522.228" y="113.83" width="80.6582" height="62.3249" fill="#EE6B47"/>
<path d="M563 79L614.095 120.663H511.905L563 79Z" fill="#317CA8"/>
<rect x="469.976" y="131.792" width="57.4177" height="44.3629" fill="#66D2C7"/>
<path d="M499 107L535.373 136.656H462.627L499 107Z" fill="#317CA8"/>
<rect x="167" y="61" width="94" height="13" rx="6.5" fill="#66D2C7"/>
<rect x="177" y="49" width="58" height="13" rx="6.5" fill="#66D2C7"/>
<ellipse cx="274.5" cy="55.5" rx="6.5" ry="5.5" fill="#66D2C7"/>
<rect x="409" y="13" width="113" height="13" rx="6.5" fill="#66D2C7"/>
<rect x="421" width="68" height="13" rx="6.5" fill="#66D2C7"/>
<rect x="470" y="26" width="39" height="10" rx="5" fill="#66D2C7"/>
<ellipse cx="393.5" cy="36" rx="6.5" ry="6" fill="#66D2C7"/>
<ellipse cx="337.5" cy="39" rx="20.5" ry="21" fill="#EE6B47"/>
<path d="M436 160H446V170C446 172.761 443.761 175 441 175V175C438.239 175 436 172.761 436 170V160Z" fill="#B4B4B4"/>
<rect x="436" y="152" width="10" height="6" fill="#81C988"/>
<path d="M436 160H446V170C446 172.761 443.761 175 441 175V175C438.239 175 436 172.761 436 170V160Z" fill="#B4B4B4"/>
<rect x="436" y="152" width="10" height="6" fill="#81C988"/>
<path d="M624 160H634V170C634 172.761 631.761 175 629 175V175C626.239 175 624 172.761 624 170V160Z" fill="#B4B4B4"/>
<rect x="624" y="152" width="10" height="6" fill="#81C988"/>
<path d="M624 160H634V170C634 172.761 631.761 175 629 175V175C626.239 175 624 172.761 624 170V160Z" fill="#B4B4B4"/>
<rect x="624" y="152" width="10" height="6" fill="#81C988"/>
<path d="M73 160H83V170C83 172.761 80.7614 175 78 175V175C75.2386 175 73 172.761 73 170V160Z" fill="#B4B4B4"/>
<rect x="73" y="152" width="10" height="6" fill="#81C988"/>
<path d="M73 160H83V170C83 172.761 80.7614 175 78 175V175C75.2386 175 73 172.761 73 170V160Z" fill="#B4B4B4"/>
<rect x="73" y="152" width="10" height="6" fill="#81C988"/>
<path d="M261 161H271V171C271 173.761 268.761 176 266 176V176C263.239 176 261 173.761 261 171V161Z" fill="#B4B4B4"/>
<rect x="261" y="153" width="10" height="6" fill="#81C988"/>
<path d="M261 161H271V171C271 173.761 268.761 176 266 176V176C263.239 176 261 173.761 261 171V161Z" fill="#B4B4B4"/>
<rect x="261" y="153" width="10" height="6" fill="#81C988"/>
<rect x="108.073" y="120.245" width="79.9747" height="55.9099" fill="#FBDD83"/>
<path d="M148.5 89L199.162 126.375H97.8375L148.5 89Z" fill="#317CA8"/>
<rect x="172.593" y="134.358" width="60.1519" height="41.7969" fill="#EE6B47"/>
<path d="M203 111L241.105 138.94H164.895L203 111Z" fill="#317CA8"/>
</svg>
