<svg width="725" height="228" viewBox="0 0 725 228" fill="none" xmlns="http://www.w3.org/2000/svg">
<rect width="6.52778" height="119" rx="3.26389" transform="matrix(-1 0 0 1 353.111 70)" fill="#317CA8"/>
<rect width="6.86538" height="47" rx="3.43269" transform="matrix(0 -1 -1 0 374 88.3077)" fill="#317CA8"/>
<rect width="6.86538" height="47" rx="3.43269" transform="matrix(0 -1 -1 0 374 104.327)" fill="#317CA8"/>
<rect width="7.5" height="148" rx="3.75" transform="matrix(-1 0 0 1 687 36)" fill="#317CA8"/>
<rect width="8.53846" height="54" rx="4.26923" transform="matrix(0 -1 -1 0 711 58.7693)" fill="#317CA8"/>
<rect width="8.53846" height="54" rx="4.26923" transform="matrix(0 -1 -1 0 711 78.6924)" fill="#317CA8"/>
<path d="M0 184H725V194C725 200.627 719.627 206 713 206H12C5.37259 206 0 200.627 0 194V184Z" fill="#66D2C7"/>
<rect x="143" y="27" width="94" height="13" rx="6.5" fill="#66D2C7"/>
<rect x="153" y="15" width="58" height="13" rx="6.5" fill="#66D2C7"/>
<ellipse cx="250.5" cy="21.5" rx="6.5" ry="5.5" fill="#66D2C7"/>
<rect x="438" y="22" width="113" height="13" rx="6.5" fill="#66D2C7"/>
<rect x="450" y="9" width="68" height="13" rx="6.5" fill="#66D2C7"/>
<rect x="499" y="35" width="39" height="10" rx="5" fill="#66D2C7"/>
<ellipse cx="422.5" cy="45" rx="6.5" ry="6" fill="#66D2C7"/>
<ellipse cx="348.5" cy="18" rx="17.5" ry="18" fill="#EE6B47"/>
<path d="M215 184C215 159.07 206.888 135.16 192.447 117.532C178.007 99.9036 158.422 90 138 90C117.578 90 97.9931 99.9035 83.5528 117.532C69.1125 135.16 61 159.07 61 184L138 184H215Z" fill="#B4B4B4"/>
<rect x="98.683" y="127.604" width="73.8228" height="56.5514" fill="#EE6B47"/>
<path d="M136 96L182.765 133.803H89.2346L136 96Z" fill="#317CA8"/>
<rect x="160.976" y="141.792" width="57.4177" height="44.3629" fill="#66D2C7"/>
<path d="M190 117L226.373 146.656H153.627L190 117Z" fill="#317CA8"/>
<path d="M234 174H244V184C244 186.761 241.761 189 239 189V189C236.239 189 234 186.761 234 184V174Z" fill="#B4B4B4"/>
<rect x="234" y="166" width="10" height="6" fill="#81C988"/>
<path d="M589 50L654.818 183.5H523.182L589 50Z" fill="#27668A"/>
<rect x="497.073" y="129.245" width="79.9747" height="55.9099" fill="#FBDD83"/>
<path d="M537.5 98L588.162 135.375H486.838L537.5 98Z" fill="#317CA8"/>
<path d="M444 173H454V183C454 185.761 451.761 188 449 188V188C446.239 188 444 185.761 444 183V173Z" fill="#B4B4B4"/>
<rect x="444" y="165" width="10" height="6" fill="#81C988"/>
<path d="M618 174H628V184C628 186.761 625.761 189 623 189V189C620.239 189 618 186.761 618 184V174Z" fill="#B4B4B4"/>
<rect x="618" y="166" width="10" height="6" fill="#81C988"/>
<path d="M315.5 83C277.333 89.6667 120 82.9573 78 58" stroke="#FBDD83" stroke-width="3"/>
<path d="M654.369 63.5762C613.284 77.102 438.414 101.615 388 86.9883" stroke="#FBDD83" stroke-width="3"/>
<rect width="7.5" height="148" rx="3.75" transform="matrix(-1 0 0 1 46 36)" fill="#317CA8"/>
<rect width="8.53846" height="54" rx="4.26923" transform="matrix(0 -1 -1 0 70 58.7693)" fill="#317CA8"/>
<rect width="8.53846" height="54" rx="4.26923" transform="matrix(0 -1 -1 0 70 78.6924)" fill="#317CA8"/>
</svg>
