<svg xmlns="http://www.w3.org/2000/svg" viewBox="0 0 3068.65 526"><defs><style>.cls-1{fill:#e4e4e4;}.cls-2{fill:none;stroke:#ed6a48;stroke-miterlimit:4;stroke-width:8px;}.cls-3{fill:#a5adb6;}.cls-4{fill:#5a5b5b;}.cls-5{fill:#fff;stroke:#de7251;stroke-width:10px;}.cls-6{fill:#ed6a48;}</style></defs><g id="Layer_2" data-name="Layer 2"><g id="Layer_2-2" data-name="Layer 2"><path id="Polygon_15" data-name="Polygon 15" class="cls-1" d="M569.32,220l71.5,124h-143Z"/><path id="Polygon_16" data-name="Polygon 16" class="cls-1" d="M569.32,282l71.5,124h-143Z"/><path id="Polygon_15-2" data-name="Polygon 15" class="cls-1" d="M996.65,220l71.5,124h-143Z"/><path id="Polygon_16-2" data-name="Polygon 16" class="cls-1" d="M996.65,282l71.5,124h-143Z"/><path id="Polygon_21" data-name="Polygon 21" class="cls-1" d="M1425.15,220l71,124h-142Z"/><path id="Polygon_22" data-name="Polygon 22" class="cls-1" d="M1425.15,282l71,124h-142Z"/><path id="Polygon_17" data-name="Polygon 17" class="cls-1" d="M1139.65,220l71.5,124h-143Z"/><path id="Polygon_18" data-name="Polygon 18" class="cls-1" d="M1139.65,282l71.5,124h-143Z"/><path id="Polygon_23" data-name="Polygon 23" class="cls-1" d="M1567.65,220l71.5,124h-143Z"/><path id="Polygon_24" data-name="Polygon 24" class="cls-1" d="M1567.65,282l71.5,124h-143Z"/><path id="Polygon_19" data-name="Polygon 19" class="cls-1" d="M1282.65,220l71.5,124h-143Z"/><path id="Polygon_20" data-name="Polygon 20" class="cls-1" d="M1282.65,282l71.5,124h-143Z"/><path id="Polygon_7" data-name="Polygon 7" class="cls-1" d="M854.15,220l71,124h-142Z"/><path id="Polygon_25" data-name="Polygon 25" class="cls-1" d="M1710.65,220l71.5,124h-143Z"/><path id="Polygon_12" data-name="Polygon 12" class="cls-1" d="M854.15,282l71,124h-142Z"/><path id="Polygon_26" data-name="Polygon 26" class="cls-1" d="M1710.65,282l71.5,124h-143Z"/><path id="Path_99" data-name="Path 99" class="cls-2" d="M1250.54,226.26l145.88,237.6"/><path id="Polygon_3-2" data-name="Polygon 3-2" class="cls-1" d="M1711.65,220l71.5,124h-143Z"/><path id="Polygon_15-2-2" data-name="Polygon 15-2" class="cls-1" d="M2567.65,220l71.5,124h-143Z"/><path id="Polygon_14-2" data-name="Polygon 14-2" class="cls-1" d="M1711.65,282l71.5,124h-143Z"/><path id="Polygon_16-2-2" data-name="Polygon 16-2" class="cls-1" d="M2567.65,282l71.5,124h-143Z"/><path id="Polygon_8-2" data-name="Polygon 8-2" class="cls-1" d="M2139.65,220l71.5,124h-143Z"/><path id="Polygon_9-2" data-name="Polygon 9-2" class="cls-1" d="M2139.65,282l71.5,124h-143Z"/><path id="Polygon_4-2" data-name="Polygon 4-2" class="cls-1" d="M1854.15,220l71,124h-142Z"/><path id="Polygon_17-2" data-name="Polygon 17-2" class="cls-1" d="M2710.65,220l71.5,124h-143Z"/><path id="Polygon_13-2" data-name="Polygon 13-2" class="cls-1" d="M1854.15,282l71,124h-142Z"/><path id="Polygon_18-2" data-name="Polygon 18-2" class="cls-1" d="M2710.65,282l71.5,124h-143Z"/><path id="Polygon_6-2" data-name="Polygon 6-2" class="cls-1" d="M2282.65,220l71.5,124h-143Z"/><path id="Polygon_10-2" data-name="Polygon 10-2" class="cls-1" d="M2282.65,282l71.5,124h-143Z"/><path id="Polygon_5-2" data-name="Polygon 5-2" class="cls-1" d="M1996.65,220l71.5,124h-143Z"/><path id="Polygon_11-2" data-name="Polygon 11-2" class="cls-1" d="M1996.65,282l71.5,124h-143Z"/><path id="Polygon_7-2" data-name="Polygon 7-2" class="cls-1" d="M2425.15,220l71,124h-142Z"/><path id="Polygon_12-2" data-name="Polygon 12-2" class="cls-1" d="M2425.15,282l71,124h-142Z"/><path id="Polygon_15-3" data-name="Polygon 15-3" class="cls-3" d="M926.15,278l71,124h-142Z"/><path id="Polygon_16-3" data-name="Polygon 16-3" class="cls-3" d="M926.15,340l71,124h-142Z"/><path id="Polygon_21-3" data-name="Polygon 21-3" class="cls-3" d="M1354.65,278l71.5,124h-143Z"/><path id="Polygon_22-3" data-name="Polygon 22-3" class="cls-3" d="M1354.65,340l71.5,124h-143Z"/><path id="Polygon_17-3" data-name="Polygon 17-3" class="cls-3" d="M1068.65,278l71.5,124h-143Z"/><path id="Polygon_18-3" data-name="Polygon 18-3" class="cls-3" d="M1068.65,340l71.5,124h-143Z"/><path id="Polygon_23-3" data-name="Polygon 23-3" class="cls-3" d="M1497.15,278l71,124h-142Z"/><path id="Polygon_24-3" data-name="Polygon 24-3" class="cls-3" d="M1497.15,340l71,124h-142Z"/><path id="Polygon_19-3" data-name="Polygon 19-3" class="cls-3" d="M1211.65,278l71.5,124h-143Z"/><path id="Polygon_20-3" data-name="Polygon 20-3" class="cls-3" d="M1211.65,340l71.5,124h-143Z"/><path id="Polygon_7-3" data-name="Polygon 7-3" class="cls-3" d="M783.65,278l71.5,124h-143Z"/><path id="Polygon_25-3" data-name="Polygon 25-3" class="cls-3" d="M1639.65,278l71.5,124h-143Z"/><path id="Polygon_12-3" data-name="Polygon 12-3" class="cls-3" d="M783.65,340l71.5,124h-143Z"/><path id="Polygon_26-3" data-name="Polygon 26-3" class="cls-3" d="M1639.65,340l71.5,124h-143Z"/><path id="Polygon_3-4" data-name="Polygon 3-4" class="cls-3" d="M1640.65,278l71.5,124h-143Z"/><path id="Polygon_15-4" data-name="Polygon 15-4" class="cls-3" d="M2497.15,278l71,124h-142Z"/><path id="Polygon_14-4" data-name="Polygon 14-4" class="cls-3" d="M1640.65,340l71.5,124h-143Z"/><path id="Polygon_16-4" data-name="Polygon 16-4" class="cls-3" d="M2497.15,340l71,124h-142Z"/><path id="Polygon_8-4" data-name="Polygon 8-4" class="cls-3" d="M2068.65,278l71.5,124h-143Z"/><path id="Polygon_9-4" data-name="Polygon 9-4" class="cls-3" d="M2068.65,340l71.5,124h-143Z"/><path id="Polygon_4-4" data-name="Polygon 4-4" class="cls-3" d="M1783.65,278l71.5,124h-143Z"/><path id="Polygon_17-4" data-name="Polygon 17-4" class="cls-3" d="M2639.65,278l71.5,124h-143Z"/><path id="Polygon_13-4" data-name="Polygon 13-4" class="cls-3" d="M1783.65,340l71.5,124h-143Z"/><path id="Polygon_18-4" data-name="Polygon 18-4" class="cls-3" d="M2639.65,340l71.5,124h-143Z"/><path id="Polygon_6-4" data-name="Polygon 6-4" class="cls-3" d="M2211.65,278l71.5,124h-143Z"/><path id="Polygon_10-4" data-name="Polygon 10-4" class="cls-3" d="M2211.65,340l71.5,124h-143Z"/><path id="Polygon_5-4" data-name="Polygon 5-4" class="cls-3" d="M1926.15,278l71,124h-142Z"/><path id="Polygon_11-4" data-name="Polygon 11-4" class="cls-3" d="M1926.15,340l71,124h-142Z"/><path id="Polygon_7-4" data-name="Polygon 7-4" class="cls-3" d="M2354.65,278l71.5,124h-143Z"/><path id="Polygon_12-4" data-name="Polygon 12-4" class="cls-3" d="M2354.65,340l71.5,124h-143Z"/><path id="Path_100" data-name="Path 100" class="cls-2" d="M2220.54,141.79,2041.69,433.11"/><path id="Polygon_15-5" data-name="Polygon 15-5" class="cls-4" d="M997.65,340l71.5,124h-143Z"/><path id="Polygon_16-5" data-name="Polygon 16-5" class="cls-4" d="M997.65,402l71.5,124h-143Z"/><path id="Polygon_21-5" data-name="Polygon 21-5" class="cls-4" d="M1426.15,340l71,124h-142Z"/><path id="Polygon_22-5" data-name="Polygon 22-5" class="cls-4" d="M1426.15,402l71,124h-142Z"/><path id="Polygon_17-5" data-name="Polygon 17-5" class="cls-4" d="M1140.65,340l71.5,124h-143Z"/><path id="Polygon_18-5" data-name="Polygon 18-5" class="cls-4" d="M1140.65,402l71.5,124h-143Z"/><path id="Polygon_23-5" data-name="Polygon 23-5" class="cls-4" d="M1568.65,340l71.5,124h-143Z"/><path id="Polygon_24-5" data-name="Polygon 24-5" class="cls-4" d="M1568.65,402l71.5,124h-143Z"/><path id="Polygon_19-5" data-name="Polygon 19-5" class="cls-4" d="M1283.65,340l71.5,124h-143Z"/><path id="Polygon_20-5" data-name="Polygon 20-5" class="cls-4" d="M1283.65,402l71.5,124h-143Z"/><path id="Polygon_25-5" data-name="Polygon 25-5" class="cls-4" d="M1711.65,340l71.5,124h-143Z"/><path id="Polygon_12-5" data-name="Polygon 12-5" class="cls-4" d="M855.15,402l71,124h-142Z"/><path id="Polygon_15-3-2" data-name="Polygon 15" class="cls-1" d="M711.82,220l71.5,124h-143Z"/><path id="Polygon_16-3-2" data-name="Polygon 16" class="cls-1" d="M711.82,282l71.5,124h-143Z"/><path id="Polygon_7-2-2" data-name="Polygon 7" class="cls-1" d="M569.32,220l71,124h-142Z"/><path id="Polygon_12-2-2" data-name="Polygon 12" class="cls-1" d="M569.32,282l71,124h-142Z"/><path id="Polygon_15-3-3" data-name="Polygon 15-3" class="cls-3" d="M641.32,278l71,124h-142Z"/><path id="Polygon_16-3-3" data-name="Polygon 16-3" class="cls-3" d="M641.32,340l71,124h-142Z"/><path id="Polygon_17-3-2" data-name="Polygon 17-3" class="cls-3" d="M783.82,278l71.5,124h-143Z"/><path id="Polygon_18-3-2" data-name="Polygon 18-3" class="cls-3" d="M783.82,340l71.5,124h-143Z"/><path id="Polygon_7-3-2" data-name="Polygon 7-3" class="cls-3" d="M498.82,278l71.5,124h-143Z"/><path id="Polygon_12-3-2" data-name="Polygon 12-3" class="cls-3" d="M498.82,340l71.5,124h-143Z"/><path id="Polygon_15-5-2" data-name="Polygon 15-5" class="cls-4" d="M712.82,340l71.5,124h-143Z"/><path id="Polygon_16-5-2" data-name="Polygon 16-5" class="cls-4" d="M712.82,402l71.5,124h-143Z"/><path id="Polygon_7-5" data-name="Polygon 7-5" class="cls-4" d="M570.32,340l71,124h-142Z"/><path id="Polygon_12-5-2" data-name="Polygon 12-5" class="cls-4" d="M570.32,402l71,124h-142Z"/><path id="Polygon_26-5" data-name="Polygon 26-5" class="cls-4" d="M1711.65,402l71.5,124h-143Z"/><path id="Polygon_3-6" data-name="Polygon 3-6" class="cls-4" d="M1712.65,340l71.5,124h-143Z"/><path id="Polygon_14-6" data-name="Polygon 14-6" class="cls-4" d="M1712.65,402l71.5,124h-143Z"/><path id="Polygon_16-6" data-name="Polygon 16-6" class="cls-4" d="M2568.65,402l71.5,124h-143Z"/><path id="Polygon_8-6" data-name="Polygon 8-6" class="cls-4" d="M2140.65,340l71.5,124h-143Z"/><path id="Polygon_9-6" data-name="Polygon 9-6" class="cls-4" d="M2140.65,402l71.5,124h-143Z"/><path id="Polygon_4-6" data-name="Polygon 4-6" class="cls-4" d="M1855.15,340l71,124h-142Z"/><path id="Polygon_17-6" data-name="Polygon 17-6" class="cls-4" d="M2711.65,340l71.5,124h-143Z"/><path id="Polygon_13-6" data-name="Polygon 13-6" class="cls-4" d="M1855.15,402l71,124h-142Z"/><path id="Polygon_18-6" data-name="Polygon 18-6" class="cls-4" d="M2711.65,402l71.5,124h-143Z"/><path id="Polygon_6-6" data-name="Polygon 6-6" class="cls-4" d="M2283.65,340l71.5,124h-143Z"/><path id="Polygon_10-6" data-name="Polygon 10-6" class="cls-4" d="M2283.65,402l71.5,124h-143Z"/><path id="Polygon_5-6" data-name="Polygon 5-6" class="cls-4" d="M1997.65,340l71.5,124h-143Z"/><path id="Polygon_11-6" data-name="Polygon 11-6" class="cls-4" d="M1997.65,402l71.5,124h-143Z"/><path id="Polygon_7-6" data-name="Polygon 7-6" class="cls-4" d="M2426.15,340l71,124h-142Z"/><path id="Polygon_12-6" data-name="Polygon 12-6" class="cls-4" d="M2426.15,402l71,124h-142Z"/><path id="Polygon_15-2-3" data-name="Polygon 15-2" class="cls-1" d="M2853.15,220l71.5,124h-143Z"/><path id="Polygon_16-2-3" data-name="Polygon 16-2" class="cls-1" d="M2853.15,282l71.5,124h-143Z"/><path id="Polygon_17-2-2" data-name="Polygon 17-2" class="cls-1" d="M2996.15,220l71.5,124h-143Z"/><path id="Polygon_18-2-2" data-name="Polygon 18-2" class="cls-1" d="M2996.15,282l71.5,124h-143Z"/><path id="Polygon_7-2-3" data-name="Polygon 7-2" class="cls-1" d="M2710.65,220l71,124h-142Z"/><path id="Polygon_12-2-3" data-name="Polygon 12-2" class="cls-1" d="M2710.65,282l71,124h-142Z"/><path id="Polygon_15-4-2" data-name="Polygon 15-4" class="cls-3" d="M2782.65,278l71,124h-142Z"/><path id="Polygon_16-4-2" data-name="Polygon 16-4" class="cls-3" d="M2782.65,340l71,124h-142Z"/><path id="Polygon_17-4-2" data-name="Polygon 17-4" class="cls-3" d="M2925.15,278l71.5,124h-143Z"/><path id="Polygon_18-4-2" data-name="Polygon 18-4" class="cls-3" d="M2925.15,340l71.5,124h-143Z"/><path id="Polygon_7-4-2" data-name="Polygon 7-4" class="cls-3" d="M2640.15,278l71.5,124h-143Z"/><path id="Polygon_12-4-2" data-name="Polygon 12-4" class="cls-3" d="M2640.15,340l71.5,124h-143Z"/><path id="Polygon_15-6" data-name="Polygon 15-6" class="cls-4" d="M2854.15,340l71.5,124h-143Z"/><path id="Polygon_16-6-2" data-name="Polygon 16-6" class="cls-4" d="M2854.15,402l71.5,124h-143Z"/><path id="Polygon_17-6-2" data-name="Polygon 17-6" class="cls-4" d="M2997.15,340l71.5,124h-143Z"/><path id="Polygon_18-6-2" data-name="Polygon 18-6" class="cls-4" d="M2997.15,402l71.5,124h-143Z"/><path id="Polygon_7-6-2" data-name="Polygon 7-6" class="cls-4" d="M2711.65,340l71,124h-142Z"/><path id="Polygon_12-6-2" data-name="Polygon 12-6" class="cls-4" d="M2711.65,402l71,124h-142Z"/><circle id="Ellipse_29" data-name="Ellipse 29" class="cls-5" cx="1209.65" cy="154.5" r="84"/><circle id="Ellipse_31" data-name="Ellipse 31" class="cls-5" cx="2271.15" cy="89" r="84"/><path id="Polygon_35" data-name="Polygon 35" class="cls-6" d="M2271.15,103l-30-65h60Z"/><circle id="Ellipse_30" data-name="Ellipse 30" class="cls-6" cx="1209.65" cy="194.5" r="14"/><circle id="Ellipse_32" data-name="Ellipse 32" class="cls-6" cx="2271.15" cy="129" r="14"/><path id="Polygon_36" data-name="Polygon 36" class="cls-6" d="M1209.65,168.5l-30-65h60Z"/><path id="Polygon_37" data-name="Polygon 37" class="cls-6" d="M2271.15,103l-30-65h60Z"/><path id="Polygon_7-5-2" data-name="Polygon 7-5" class="cls-4" d="M855.15,340l71,124h-142Z"/><path id="Polygon_7-3-3" data-name="Polygon 7" class="cls-1" d="M426.82,220l71,124h-142Z"/><path id="Polygon_12-3-3" data-name="Polygon 12" class="cls-1" d="M426.82,282l71,124h-142Z"/><path id="Polygon_15-3-4" data-name="Polygon 15-3" class="cls-3" d="M498.82,278l71,124h-142Z"/><path id="Polygon_16-3-4" data-name="Polygon 16-3" class="cls-3" d="M498.82,340l71,124h-142Z"/><path id="Polygon_7-3-4" data-name="Polygon 7-3" class="cls-3" d="M356.32,278l71.5,124h-143Z"/><path id="Polygon_12-3-4" data-name="Polygon 12-3" class="cls-3" d="M356.32,340l71.5,124h-143Z"/><path id="Polygon_15-5-3" data-name="Polygon 15-5" class="cls-4" d="M570.32,340l71.5,124h-143Z"/><path id="Polygon_16-5-3" data-name="Polygon 16-5" class="cls-4" d="M570.32,402l71.5,124h-143Z"/><path id="Polygon_12-5-3" data-name="Polygon 12-5" class="cls-4" d="M427.82,402l71,124h-142Z"/><path id="Polygon_15-4-3" data-name="Polygon 15" class="cls-1" d="M284.5,220,356,344H213Z"/><path id="Polygon_16-4-3" data-name="Polygon 16" class="cls-1" d="M284.5,282,356,406H213Z"/><path id="Polygon_7-4-3" data-name="Polygon 7" class="cls-1" d="M142,220l71,124H71Z"/><path id="Polygon_12-4-3" data-name="Polygon 12" class="cls-1" d="M142,282l71,124H71Z"/><path id="Polygon_15-3-5" data-name="Polygon 15-3" class="cls-3" d="M214,278l71,124H143Z"/><path id="Polygon_16-3-5" data-name="Polygon 16-3" class="cls-3" d="M214,340l71,124H143Z"/><path id="Polygon_17-3-3" data-name="Polygon 17-3" class="cls-3" d="M356.5,278,428,402H285Z"/><path id="Polygon_18-3-3" data-name="Polygon 18-3" class="cls-3" d="M356.5,340,428,464H285Z"/><path id="Polygon_7-3-5" data-name="Polygon 7-3" class="cls-3" d="M71.5,278,143,402H0Z"/><path id="Polygon_12-3-5" data-name="Polygon 12-3" class="cls-3" d="M71.5,340,143,464H0Z"/><path id="Polygon_15-5-4" data-name="Polygon 15-5" class="cls-4" d="M285.5,340,357,464H214Z"/><path id="Polygon_16-5-4" data-name="Polygon 16-5" class="cls-4" d="M285.5,402,357,526H214Z"/><path id="Polygon_7-5-3" data-name="Polygon 7-5" class="cls-4" d="M143,340l71,124H72Z"/><path id="Polygon_12-5-4" data-name="Polygon 12-5" class="cls-4" d="M143,402l71,124H72Z"/><path id="Polygon_7-5-4" data-name="Polygon 7-5" class="cls-4" d="M427.82,340l71,124h-142Z"/><path id="Polygon_15-6-2" data-name="Polygon 15-6" class="cls-4" d="M2568.65,340l71.5,124h-143Z"/><rect id="Rectangle_53" data-name="Rectangle 53" class="cls-4" y="462" width="3063.12" height="64"/></g></g></svg>