<svg xmlns="http://www.w3.org/2000/svg" viewBox="0 0 600 503.5"><defs><style>.cls-1{fill:#fff;stroke:#317ca8;stroke-linecap:square;}.cls-1,.cls-3{stroke-width:10px;}.cls-2{fill:#317ca8;}.cls-3,.cls-5,.cls-6{fill:none;}.cls-3,.cls-6{stroke:#6fc9c2;}.cls-3,.cls-5{stroke-linecap:round;}.cls-4{fill:#ed6a48;}.cls-5{stroke:#82cec7;}.cls-5,.cls-6{stroke-width:8px;}.cls-7{fill:#6fc9c2;}</style></defs><g id="Layer_2" data-name="Layer 2"><g id="Layer_2-2" data-name="Layer 2"><circle id="Ellipse_23" data-name="Ellipse 23" class="cls-1" cx="511" cy="414.5" r="84"/><circle id="Ellipse_24" data-name="Ellipse 24" class="cls-1" cx="300" cy="414.5" r="84"/><circle id="Ellipse_25" data-name="Ellipse 25" class="cls-1" cx="89" cy="414.5" r="84"/><g id="Group_120" data-name="Group 120"><rect id="Rectangle_1" data-name="Rectangle 1" class="cls-2" x="145.88" y="73.78" width="23.45" height="9.54" transform="translate(-3.78 149.02) rotate(-50.08)"/><path id="Path_1" data-name="Path 1" class="cls-2" d="M200.79,62.61A32.31,32.31,0,0,0,190,45.43L178.62,35.9h0L166.18,25.47,145.5,50.19l-5.17,6.17L124.76,75h0L95.22,110.28l12.45,10.41,29.54-35.3,10.43,8.72c.72.66,1.47,1.29,2.25,1.88a32.12,32.12,0,0,0,17.5,6.54c.68,0,1.36.06,2.05.06a32.29,32.29,0,0,0,32.28-32.31,33.05,33.05,0,0,0-.93-7.67ZM185,42.06h0Zm-.6-.33-.08,0Zm-.6-.3-.12-.06Zm-.61-.31-.15-.06Zm-.62-.28-.17-.07Zm-.62-.27-.19-.08Zm-.63-.26-.2-.08Zm-.64-.24L180.5,40Zm-.64-.23-.24-.08Zm-.65-.22-.25-.08Zm-.66-.21-.25-.07Zm-.66-.19-.26-.07Zm-.67-.18-.27-.07Zm-.67-.16-.28-.07ZM157,84.73l-11.33-9.48,24.4-29.16L180.76,55l1.7,1.42a19,19,0,0,1-24.94,28.71Z"/><path id="Path_2" data-name="Path 2" class="cls-2" d="M196.88,0a19,19,0,1,0,19,19A19,19,0,0,0,196.88,0Zm0,25.33A6.36,6.36,0,1,1,203.23,19a6.35,6.35,0,0,1-6.35,6.35h0Z"/><path id="Path_3" data-name="Path 3" class="cls-2" d="M232.31,19l-13-7.52v15Z"/></g><path id="Path_91" data-name="Path 91" class="cls-3" d="M44.55,160.69s231.76,47.84,510,0"/><rect id="Rectangle_124" data-name="Rectangle 124" class="cls-4" x="136" y="120.5" width="327" height="123"/><g id="Group_121" data-name="Group 121"><path id="Path_92" data-name="Path 92" class="cls-5" d="M477,410.57H547.3s19-.49,19-19-19-19-19-19"/><path id="Path_93" data-name="Path 93" class="cls-5" d="M455.52,421.31H566.34"/><path id="Path_94" data-name="Path 94" class="cls-5" d="M462.74,432.37h77.17S559,434.23,559,451.45"/><path id="Path_95" data-name="Path 95" class="cls-5" d="M472.51,443.51H526.2"/><path id="Path_96" data-name="Path 96" class="cls-5" d="M471.39,410.58h53.69"/></g><path id="Union_2" data-name="Union 2" class="cls-6" d="M276,451.5a24,24,0,0,1,13-21.34V370.5a11,11,0,0,1,22,0v59.66a24,24,0,1,1-35,21.34Z"/><circle id="Ellipse_27" data-name="Ellipse 27" class="cls-4" cx="300" cy="451.5" r="14"/><rect id="Rectangle_126" data-name="Rectangle 126" class="cls-4" x="297" y="388.5" width="6" height="54"/><circle id="Ellipse_28" data-name="Ellipse 28" class="cls-4" cx="70" cy="412.5" r="31"/><g id="Group_122" data-name="Group 122"><path id="Rectangle_101" data-name="Rectangle 101" class="cls-7" d="M48,426.5h95a11,11,0,0,1,11,11h0a11,11,0,0,1-11,11H48a11,11,0,0,1-11-11h0A11,11,0,0,1,48,426.5Z"/><path id="Rectangle_102" data-name="Rectangle 102" class="cls-7" d="M66,412.5h55a11,11,0,0,1,11,11h0a11,11,0,0,1-11,11H66a11,11,0,0,1-11-11h0A11,11,0,0,1,66,412.5Z"/></g><rect id="Rectangle_127" data-name="Rectangle 127" class="cls-2" x="136" y="208.5" width="327" height="35"/></g></g></svg>