<svg width="610" height="177" viewBox="0 0 610 177" fill="none" xmlns="http://www.w3.org/2000/svg">
<path d="M560 2C567.914 10.5487 569.23 18.6705 570.455 34.3537C587.71 28.1337 593.142 33.1863 602.467 42.9313" stroke="#317CA8" stroke-width="3"/>
<path d="M36.5496 109C42.1659 113.593 43.4188 117.662 44.9717 125.455C56.0331 123.209 59.849 125.96 66.4504 131.21" stroke="#317CA8" stroke-width="3"/>
<path d="M5 153C8.96136 157.478 9.44403 160.882 9.67973 167.275C18.9697 167.17 21.71 169.92 26.3858 175.065" stroke="#317CA8" stroke-width="3"/>
<path d="M106 139C111.495 144.83 112.431 150.349 113.33 161C125.226 156.836 128.994 160.284 135.467 166.931" stroke="#317CA8" stroke-width="3"/>
<path d="M152 92C157.055 96.3856 158.075 99.8342 159.244 106.341C169.596 105.814 173.043 108.493 178.989 113.528" stroke="#317CA8" stroke-width="3"/>
<path d="M224.116 141.718C231.786 147.709 233.724 153.656 236.33 165.196C250.597 159.887 255.781 163.397 264.786 170.213" stroke="#317CA8" stroke-width="3"/>
<path d="M471 101C477.819 109.803 478.392 117.651 478.246 132.697C495.193 128.203 499.942 133.468 508.003 143.528" stroke="#317CA8" stroke-width="3"/>
<path d="M340.004 65C348.337 72.4567 350.057 79.2315 352.063 92.2477C368.991 87.9711 374.669 92.4159 384.471 100.931" stroke="#317CA8" stroke-width="3"/>
<path d="M325 122C331.535 130.025 332.412 137.843 332.974 152.981C347.999 146.423 352.509 151.143 360.219 160.281" stroke="#317CA8" stroke-width="3"/>
<path d="M448 32C455.692 38.9874 457.49 46.1104 459.792 59.9678C474.638 53.0863 479.855 57.1572 488.892 65.0988" stroke="#317CA8" stroke-width="3"/>
</svg>
