<svg xmlns="http://www.w3.org/2000/svg" viewBox="0 0 2385.93 256.5"><defs><style>.cls-1{fill:#6fc9c2;}.cls-2,.cls-3,.cls-5{fill:none;stroke-linecap:round;}.cls-2{stroke:#317ca8;}.cls-2,.cls-3{stroke-width:4px;}.cls-3,.cls-5{stroke:#6fc9c2;}.cls-4{fill:#ed6a48;}.cls-5{stroke-width:4.58px;}</style></defs><g id="Layer_2" data-name="Layer 2"><g id="Layer_2-2" data-name="Layer 2"><g id="Group_116" data-name="Group 116"><path id="Rectangle_105" data-name="Rectangle 105" class="cls-1" d="M489.73,14h170a11,11,0,0,1,11,11h0a11,11,0,0,1-11,11h-170a11,11,0,0,1-11-11h0A11,11,0,0,1,489.73,14Z"/><path id="Rectangle_104" data-name="Rectangle 104" class="cls-1" d="M458.23,28h0a10.5,10.5,0,0,1,10.5,10.5v1A10.5,10.5,0,0,1,458.23,50h0a10.5,10.5,0,0,1-10.5-10.5v-1A10.5,10.5,0,0,1,458.23,28Z"/><path id="Rectangle_107" data-name="Rectangle 107" class="cls-1" d="M514.73,0h91a11,11,0,0,1,11,11h0a11,11,0,0,1-11,11h-91a11,11,0,0,1-11-11h0A11,11,0,0,1,514.73,0Z"/><path id="Rectangle_106" data-name="Rectangle 106" class="cls-1" d="M599.73,28h34a11,11,0,0,1,11,11h0a11,11,0,0,1-11,11h-34a11,11,0,0,1-11-11h0A11,11,0,0,1,599.73,28Z"/></g><g id="Group_117" data-name="Group 117"><path id="Rectangle_101" data-name="Rectangle 101" class="cls-1" d="M1858.09,40.51h158a11,11,0,0,1,11,11h0a11,11,0,0,1-11,11h-158a11,11,0,0,1-11-11h0A11,11,0,0,1,1858.09,40.51Z"/><path id="Rectangle_102" data-name="Rectangle 102" class="cls-1" d="M1899.09,26.51h70a11,11,0,0,1,11,11h0a11,11,0,0,1-11,11h-70a11,11,0,0,1-11-11h0A11,11,0,0,1,1899.09,26.51Z"/><path id="Rectangle_103" data-name="Rectangle 103" class="cls-1" d="M2042.09,26.51h0a11,11,0,0,1,11,11h0a11,11,0,0,1-11,11h0a11,11,0,0,1-11-11h0A11,11,0,0,1,2042.09,26.51Z"/></g><path id="Path_48" data-name="Path 48" class="cls-2" d="M284.68,166.17V254"/><path id="Path_49" data-name="Path 49" class="cls-2" d="M587.68,166.17V254"/><path id="Path_52" data-name="Path 52" class="cls-2" d="M890.68,166.17V254"/><path id="Path_57" data-name="Path 57" class="cls-2" d="M1193.68,166.17V254"/><path id="Path_59" data-name="Path 59" class="cls-2" d="M1496.68,166.17V254"/><path id="Path_47" data-name="Path 47" class="cls-2" d="M263.8,185.46H305"/><path id="Path_62" data-name="Path 62" class="cls-2" d="M263.8,174.46H305"/><path id="Path_51" data-name="Path 51" class="cls-2" d="M566.8,185.46H608"/><path id="Path_63" data-name="Path 63" class="cls-2" d="M566.8,174.46H608"/><path id="Path_53" data-name="Path 53" class="cls-2" d="M869.8,185.46H911"/><path id="Path_64" data-name="Path 64" class="cls-2" d="M869.8,174.46H911"/><path id="Path_56" data-name="Path 56" class="cls-2" d="M1172.8,185.46H1214"/><path id="Path_65" data-name="Path 65" class="cls-2" d="M1172.8,174.46H1214"/><path id="Path_58" data-name="Path 58" class="cls-2" d="M1475.8,185.46H1517"/><path id="Path_66" data-name="Path 66" class="cls-2" d="M1475.8,174.46H1517"/><path id="Path_46" data-name="Path 46" class="cls-3" d="M2,200.74s118.93,24.55,261.7,0"/><path id="Path_50" data-name="Path 50" class="cls-3" d="M305,200.74s118.93,24.55,261.7,0"/><path id="Path_54" data-name="Path 54" class="cls-3" d="M608,200.74s118.93,24.55,261.7,0"/><path id="Path_55" data-name="Path 55" class="cls-3" d="M911,200.74s118.93,24.55,261.7,0"/><path id="Path_44" data-name="Path 44" class="cls-2" d="M1798.92,166.17V254"/><path id="Path_48-2" data-name="Path 48" class="cls-2" d="M2101.92,166.17V254"/><path id="Path_45" data-name="Path 45" class="cls-2" d="M1778,185.46h41.2"/><path id="Path_61" data-name="Path 61" class="cls-2" d="M1778,174.46h41.2"/><path id="Path_47-2" data-name="Path 47" class="cls-2" d="M2081,185.46h41.2"/><path id="Path_62-2" data-name="Path 62" class="cls-2" d="M2081,174.46h41.2"/><path id="Path_46-2" data-name="Path 46" class="cls-3" d="M1819.24,200.74s118.93,24.55,261.69,0"/><path id="Path_76" data-name="Path 76" class="cls-3" d="M1516.24,200.74s118.93,24.55,261.69,0"/><path id="Path_50-2" data-name="Path 50" class="cls-3" d="M2122.24,200.74s118.93,24.55,261.69,0"/><g id="Group_90" data-name="Group 90"><rect id="Rectangle_1" data-name="Rectangle 1" class="cls-4" x="1194.09" y="148.2" width="7.44" height="3.03" transform="translate(314.33 972.29) rotate(-50.08)"/><path id="Path_1" data-name="Path 1" class="cls-4" d="M1211.52,144.66a10.06,10.06,0,0,1,.3,2.44,10.27,10.27,0,0,1-10.25,10.26l-.65,0a10.23,10.23,0,0,1-5.56-2.08q-.37-.28-.72-.6l-3.31-2.77L1182,163.1l-4-3.3,9.38-11.21h0l4.95-5.91,1.64-2,6.56-7.84,4,3.31h0l3.61,3a10.23,10.23,0,0,1,3.42,5.46Zm-5-6.53Zm-.21-.11h0Zm-.2-.11,0,0Zm-.2-.09,0,0Zm-.21-.1,0,0Zm-.21-.08.06,0Zm-.2-.09.06,0Zm-.21-.08.07,0Zm-.21-.07.08,0Zm-.2-.07.07,0Zm-.21-.06.08,0Zm-.22-.06.09,0Zm-.21-.06.08,0Zm-.22-.05.09,0Zm-6,14.71a6,6,0,0,0,7.91-9.11l-.53-.45-3.39-2.84-7.75,9.26,3.6,3Z"/><path id="Path_2" data-name="Path 2" class="cls-4" d="M1210.28,124.78a6,6,0,1,1-6,6,6,6,0,0,1,6-6Zm2,6h0a2,2,0,1,0-2,2A2,2,0,0,0,1212.3,130.8Z"/><path id="Path_3" data-name="Path 3" class="cls-4" d="M1221.53,130.8l-4.13-2.38v4.77Z"/></g><path class="cls-5" d="M1211.08,200.74s2.81,51.08,54.58,53.28h73.06"/><path class="cls-5" d="M1475.8,200.74s.48,52.87-24.22,53.28-29.94,0-29.94,0"/></g></g></svg>