<svg width="484" height="359" viewBox="0 0 484 359" fill="none" xmlns="http://www.w3.org/2000/svg">
<rect x="22" y="35" width="113" height="13" rx="6.5" fill="#66D2C7"/>
<rect x="34" y="22" width="68" height="13" rx="6.5" fill="#66D2C7"/>
<rect x="83" y="48" width="39" height="10" rx="5" fill="#66D2C7"/>
<ellipse cx="6.5" cy="58" rx="6.5" ry="6" fill="#66D2C7"/>
<rect x="364" y="134" width="94" height="13" rx="6.5" fill="#66D2C7"/>
<rect x="374" y="122" width="58" height="13" rx="6.5" fill="#66D2C7"/>
<ellipse cx="471.5" cy="128.5" rx="6.5" ry="5.5" fill="#66D2C7"/>
<rect x="93" y="115" width="84.076" height="75.1549" fill="#66D2C7"/>
<path d="M135.5 73L188.761 123.239H82.2394L135.5 73Z" fill="#317CA8"/>
<rect x="49.6748" y="136.17" width="64.9367" height="53.9854" fill="#EE6B47"/>
<path d="M82.5 106L123.636 142.088H41.3638L82.5 106Z" fill="#317CA8"/>
<rect x="110.813" y="151.566" width="47.8481" height="38.5894" fill="#FBDD83"/>
<path d="M135 130L165.311 155.796H104.689L135 130Z" fill="#317CA8"/>
<path d="M453 280.5C453 259.681 444.94 239.714 430.594 224.992C416.247 210.271 396.789 202 376.5 202C356.211 202 336.753 210.271 322.406 224.992C308.06 239.714 300 259.68 300 280.5L376.5 280.5H453Z" fill="#317CA8"/>
<rect width="3" height="52" rx="1.5" transform="matrix(-1 0 0 1 347 163)" fill="#317CA8"/>
<rect width="3" height="26" rx="1.5" transform="matrix(0 -1 -1 0 359 171)" fill="#317CA8"/>
<rect width="3" height="26" rx="1.5" transform="matrix(0 -1 -1 0 359 178)" fill="#317CA8"/>
<path d="M484 281C484 266.413 477.415 252.424 465.694 242.109C453.973 231.795 438.076 226 421.5 226C404.924 226 389.027 231.795 377.306 242.109C365.585 252.424 359 266.413 359 281L421.5 281H484Z" fill="#66D2C7"/>
<path d="M406 281C406 269.33 402.154 258.139 395.309 249.887C388.464 241.636 379.18 237 369.5 237C359.82 237 350.536 241.636 343.691 249.887C336.846 258.139 333 269.33 333 281L369.5 281H406Z" fill="#EE6B47"/>
<path d="M184 126C230.276 169.211 263.49 178.725 329 183" stroke="#EE786D" stroke-width="3" stroke-linecap="round"/>
<line x1="245.778" y1="160.682" x2="285.682" y2="74.2223" stroke="#EE786D" stroke-width="5" stroke-linecap="round"/>
<path d="M338.5 41C338.5 62.1791 320.677 79.5 298.5 79.5C276.323 79.5 258.5 62.1791 258.5 41C258.5 19.8209 276.323 2.5 298.5 2.5C320.677 2.5 338.5 19.8209 338.5 41Z" fill="white" stroke="#EE786D" stroke-width="5"/>
<path d="M298.5 49L280.746 16L316.254 16L298.5 49Z" fill="#EE786D"/>
<ellipse cx="298" cy="64.5" rx="6" ry="6.5" fill="#EE786D"/>
</svg>
