<svg xmlns="http://www.w3.org/2000/svg" viewBox="0 0 2798.09 802.48"><defs><style>.cls-1,.cls-8{fill:#fff;}.cls-1,.cls-11,.cls-12,.cls-3,.cls-4,.cls-5{stroke:#317ca8;}.cls-1{stroke-linecap:square;stroke-width:12.41px;}.cls-11,.cls-12,.cls-13,.cls-14,.cls-15,.cls-16,.cls-17,.cls-18,.cls-19,.cls-2,.cls-3,.cls-4,.cls-5,.cls-6{fill:none;}.cls-14,.cls-2,.cls-6{stroke:#6fc9c2;}.cls-11,.cls-12,.cls-13,.cls-15,.cls-16,.cls-2,.cls-3,.cls-4,.cls-5,.cls-6{stroke-linecap:round;}.cls-2{stroke-width:4.08px;}.cls-3{stroke-width:5.45px;}.cls-4{stroke-width:4.08px;}.cls-11,.cls-5{stroke-width:9.53px;}.cls-6{stroke-miterlimit:4;stroke-width:6.81px;}.cls-7{fill:#ed6a48;}.cls-9{fill:#317ca8;}.cls-10{fill:#6fc9c2;}.cls-11,.cls-12,.cls-15,.cls-16{stroke-linejoin:round;}.cls-12{stroke-width:9.34px;}.cls-13{stroke:#82cec7;}.cls-13,.cls-14,.cls-16,.cls-17{stroke-width:9.93px;}.cls-15,.cls-16{stroke:#ed6a48;}.cls-15,.cls-19{stroke-width:7px;}.cls-17{stroke:#de7251;}.cls-18,.cls-19{stroke:#70c9c2;}.cls-18{stroke-width:6.79px;stroke-dasharray:11.63;}.cls-19{stroke-dasharray:12;}</style></defs><g id="Layer_2" data-name="Layer 2"><g id="Layer_2-2" data-name="Layer 2"><circle id="Ellipse_31" data-name="Ellipse 31" class="cls-1" cx="2033.82" cy="111.72" r="104.27"/><path id="Path_88" data-name="Path 88" class="cls-2" d="M1555.9,609.72s73.78,12.09,117.71-38"/><g id="Group_107" data-name="Group 107"><path id="Path_49-2" data-name="Path 49-2" class="cls-3" d="M1827.31,613.7V733.32"/><path id="Path_51-2" data-name="Path 51-2" class="cls-3" d="M1798.88,640H1855"/><path id="Path_63-2" data-name="Path 63-2" class="cls-3" d="M1798.88,625H1855"/></g><g id="Group_110" data-name="Group 110"><path id="Path_49-3" data-name="Path 49-3" class="cls-4" d="M1689.76,545.59V613.5"/><path id="Path_51-3" data-name="Path 51-3" class="cls-4" d="M1673.62,560.5h31.85"/><path id="Path_63-3" data-name="Path 63-3" class="cls-4" d="M1673.62,552h31.85"/></g><g id="Group_108" data-name="Group 108"><path id="Path_52" data-name="Path 52" class="cls-5" d="M2240.23,510.94V743.5"/><path id="Path_53" data-name="Path 53" class="cls-5" d="M2185,562H2294"/><path id="Path_64" data-name="Path 64" class="cls-5" d="M2185,532.9H2294"/></g><path id="Path_83" data-name="Path 83" class="cls-6" d="M2290.46,587.46s217.55,67.13,504.23.75"/><path id="Path_84" data-name="Path 84" class="cls-6" d="M2185.35,584.71s-136.65,96.53-330.88,70.37"/><path id="Path_86" data-name="Path 86" class="cls-2" d="M1705.67,570.49s27.64,69.46,93.22,81.31"/><rect class="cls-7" x="1338.54" y="401.54" width="78.74" height="52.59" rx="6.45" transform="translate(1805.75 -950.07) rotate(90)"/><rect class="cls-7" x="1360" y="369.22" width="78.74" height="9.67" rx="3.14" transform="translate(1773.42 -1025.32) rotate(90)"/><rect class="cls-8" x="1359.1" y="399.35" width="37.62" height="9.67" rx="3.14" transform="translate(2755.82 808.37) rotate(180)"/><rect class="cls-8" x="1359.1" y="415.52" width="37.62" height="9.67" rx="3.14" transform="translate(2755.82 840.7) rotate(180)"/><path id="Path_88-2" data-name="Path 88" class="cls-2" d="M1249.21,609.72s-73.78,12.09-117.71-38"/><path id="Intersection_1" data-name="Intersection 1" class="cls-9" d="M1645.46,729.52c0-146.73-119-265.68-265.69-265.68s-265.68,119-265.68,265.68Z"/><path id="Intersection_2" data-name="Intersection 2" class="cls-10" d="M1246.34,729.52c0-63.92-51.51-115.73-115.06-115.73s-115,51.81-115,115.73Z"/><path id="Intersection_2-2" data-name="Intersection 2" class="cls-10" d="M1788.67,729.52c0-63.92-51.51-115.73-115.05-115.73s-115.06,51.81-115.06,115.73Z"/><path id="Intersection_3" data-name="Intersection 3" class="cls-7" d="M1506.4,729.52c0-88-70.71-159.3-157.94-159.3s-158,71.32-158,159.3Z"/><g id="Group_107-2" data-name="Group 107"><path id="Path_49-2-2" data-name="Path 49-2" class="cls-3" d="M977.8,613.7V733.32"/><path id="Path_51-2-2" data-name="Path 51-2" class="cls-3" d="M1006.22,640H950.13"/><path id="Path_63-2-2" data-name="Path 63-2" class="cls-3" d="M1006.22,625H950.13"/></g><g id="Group_110-2" data-name="Group 110"><path id="Path_49-3-2" data-name="Path 49-3" class="cls-4" d="M1115.35,545.59V613.5"/><path id="Path_51-3-2" data-name="Path 51-3" class="cls-4" d="M1131.49,560.5h-31.85"/><path id="Path_63-3-2" data-name="Path 63-3" class="cls-4" d="M1131.49,552h-31.85"/></g><g id="Group_108-2" data-name="Group 108"><path id="Path_52-2" data-name="Path 52" class="cls-5" d="M564.88,510.94V743.5"/><path id="Path_53-2" data-name="Path 53" class="cls-5" d="M620.14,562H511.08"/><path id="Path_64-2" data-name="Path 64" class="cls-5" d="M620.14,532.9H511.08"/></g><path id="Path_84-2" data-name="Path 84" class="cls-6" d="M619.76,584.71s136.65,96.53,330.88,70.37"/><path id="Path_86-2" data-name="Path 86" class="cls-2" d="M1099.44,570.49S1071.8,640,1006.22,651.8"/><g id="Group_115" data-name="Group 115"><path id="Rectangle_105" data-name="Rectangle 105" class="cls-10" d="M2233.22,361.89H1947.91a18.47,18.47,0,0,0-18.46,18.46h0a18.46,18.46,0,0,0,18.46,18.46h285.31a18.46,18.46,0,0,0,18.46-18.46h0A18.47,18.47,0,0,0,2233.22,361.89Z"/><path id="Rectangle_104" data-name="Rectangle 104" class="cls-10" d="M2286.08,385.39h0A17.62,17.62,0,0,0,2268.46,403v1.68a17.62,17.62,0,0,0,17.62,17.62h0a17.62,17.62,0,0,0,17.62-17.62V403A17.62,17.62,0,0,0,2286.08,385.39Z"/><path id="Rectangle_107" data-name="Rectangle 107" class="cls-10" d="M2191.26,338.39H2038.54a18.46,18.46,0,0,0-18.46,18.47h0a18.46,18.46,0,0,0,18.46,18.46h152.72a18.47,18.47,0,0,0,18.46-18.46h0A18.47,18.47,0,0,0,2191.26,338.39Z"/><path id="Rectangle_106" data-name="Rectangle 106" class="cls-10" d="M2048.61,385.39h-57.06a18.45,18.45,0,0,0-18.46,18.46h0a18.46,18.46,0,0,0,18.46,18.46h57.06a18.47,18.47,0,0,0,18.46-18.46h0A18.46,18.46,0,0,0,2048.61,385.39Z"/></g><rect class="cls-7" x="752.36" y="637.3" width="65.68" height="25.13" rx="6.45" transform="translate(138.93 -138.29) rotate(11.04)"/><path class="cls-11" d="M1403.45,283.33c35.18,3.52,51,22.5,52.69,52.69A52.69,52.69,0,0,0,1403.45,283.33Z"/><path class="cls-11" d="M1402.63,305.83c20.7,2.07,30,13.24,31,31A31,31,0,0,0,1402.63,305.83Z"/><path class="cls-12" d="M1404.2,257.44c52,5.2,75.29,33.23,77.82,77.82A77.82,77.82,0,0,0,1404.2,257.44Z"/><circle id="Ellipse_23" data-name="Ellipse 23" class="cls-1" cx="991.4" cy="110.48" r="104.27"/><circle id="Ellipse_24" data-name="Ellipse 24" class="cls-1" cx="729.48" cy="110.48" r="104.27"/><circle id="Ellipse_25" data-name="Ellipse 25" class="cls-1" cx="467.56" cy="110.48" r="104.27"/><g id="Group_121" data-name="Group 121"><path id="Path_92" data-name="Path 92" class="cls-13" d="M949.17,105.61h87.29s23.63-.61,23.63-23.64-23.63-23.63-23.63-23.63"/><path id="Path_93" data-name="Path 93" class="cls-13" d="M922.54,118.93h137.55"/><path id="Path_94" data-name="Path 94" class="cls-13" d="M931.49,132.66h95.8S1051,135,1051,156.34"/><path id="Path_95" data-name="Path 95" class="cls-13" d="M943.62,146.49h66.65"/><path id="Path_96" data-name="Path 96" class="cls-13" d="M942.23,105.61h66.65"/></g><path id="Union_2" data-name="Union 2" class="cls-14" d="M699.69,156.41a29.78,29.78,0,0,1,16.13-26.49V55.86a13.66,13.66,0,0,1,27.31,0v74.06a29.79,29.79,0,1,1-43.44,26.49Z"/><circle id="Ellipse_27" data-name="Ellipse 27" class="cls-7" cx="729.48" cy="156.41" r="17.38"/><rect id="Rectangle_126" data-name="Rectangle 126" class="cls-7" x="725.76" y="78.2" width="7.45" height="67.03"/><circle id="Ellipse_28" data-name="Ellipse 28" class="cls-7" cx="443.97" cy="108" r="38.48"/><g id="Group_122" data-name="Group 122"><path id="Rectangle_101" data-name="Rectangle 101" class="cls-10" d="M416.66,125.37H534.59A13.66,13.66,0,0,1,548.24,139h0a13.65,13.65,0,0,1-13.65,13.65H416.66A13.65,13.65,0,0,1,403,139h0A13.66,13.66,0,0,1,416.66,125.37Z"/><path id="Rectangle_102" data-name="Rectangle 102" class="cls-10" d="M439,108h68.27a13.66,13.66,0,0,1,13.66,13.65h0a13.67,13.67,0,0,1-13.66,13.66H439a13.67,13.67,0,0,1-13.66-13.66h0A13.66,13.66,0,0,1,439,108Z"/></g><rect class="cls-8" x="798.28" y="648.72" width="11.59" height="9.67" rx="3.14" transform="translate(1468.17 1448.94) rotate(-168.96)"/><path class="cls-15" d="M1079.28,294S1133.94,396,1286.22,396"/><polyline class="cls-15" points="1282.48 375.56 1303.68 396.76 1283.72 416.72"/><path class="cls-15" d="M1677.43,294S1622.77,396,1470.49,396"/><polyline class="cls-15" points="1694.04 308.49 1686.12 279.57 1658.9 287.02"/><circle id="Ellipse_31-2" data-name="Ellipse 31" class="cls-1" cx="2290.68" cy="111.72" r="104.27"/><circle id="Ellipse_32" data-name="Ellipse 32" class="cls-16" cx="2290.68" cy="156.6" r="15.64"/><path id="Polygon_37" data-name="Polygon 37" class="cls-16" d="M2290.68,127.55l-33.53-72.63h67Z"/><circle id="Ellipse_31-3" data-name="Ellipse 31" class="cls-1" cx="1779.02" cy="111.72" r="104.27"/><ellipse class="cls-17" cx="2033.82" cy="78.32" rx="42.94" ry="14.31"/><path class="cls-17" d="M2076.76,111.72c0,7.92-19.09,14.31-42.94,14.31s-42.94-6.39-42.94-14.31"/><path class="cls-17" d="M1990.88,78.32v66.8c0,7.92,19.08,14.31,42.94,14.31s42.94-6.39,42.94-14.31V78.32"/><circle class="cls-17" cx="1779.02" cy="111.72" r="15.49"/><path class="cls-17" d="M1817.23,127.21a8.52,8.52,0,0,0,1.7,9.4l.31.31a10.33,10.33,0,0,1,0,14.61h0a10.32,10.32,0,0,1-14.6,0h0l-.31-.31a8.59,8.59,0,0,0-14.56,6.1v.88a10.33,10.33,0,0,1-20.66,0v-.47a8.93,8.93,0,0,0-15-6.09l-.31.31a10.34,10.34,0,0,1-14.61,0h0a10.34,10.34,0,0,1,0-14.61h0l.31-.31a8.58,8.58,0,0,0-6.09-14.56h-.88a10.33,10.33,0,1,1,0-20.65h.47a8.95,8.95,0,0,0,6.09-15l-.31-.31a10.33,10.33,0,0,1,0-14.61h0a10.33,10.33,0,0,1,14.61,0h0l.31.31a8.53,8.53,0,0,0,9.4,1.7h.41a8.51,8.51,0,0,0,5.17-7.8v-.88a10.33,10.33,0,0,1,20.65,0v.47a8.59,8.59,0,0,0,14.57,6.09l.31-.31a10.33,10.33,0,0,1,14.6,0h0a10.33,10.33,0,0,1,0,14.61h0l-.31.31a8.52,8.52,0,0,0-1.7,9.4v.41a8.5,8.5,0,0,0,7.79,5.16h.88a10.33,10.33,0,0,1,0,20.66H1825A8.52,8.52,0,0,0,1817.23,127.21Z"/><path id="Path_83-2" data-name="Path 83" class="cls-6" d="M3.4,584.64s217.56,67.13,504.23.75"/><g id="Group_114" data-name="Group 114"><path id="Rectangle_101-2" data-name="Rectangle 101" class="cls-10" d="M456.81,377.84h248a17.26,17.26,0,0,1,17.26,17.26h0a17.27,17.27,0,0,1-17.26,17.27h-248a17.27,17.27,0,0,1-17.27-17.27h0A17.27,17.27,0,0,1,456.81,377.84Z"/><path id="Rectangle_102-2" data-name="Rectangle 102" class="cls-10" d="M521.16,355.87H631a17.26,17.26,0,0,1,17.26,17.26h0A17.26,17.26,0,0,1,631,390.39H521.16a17.26,17.26,0,0,1-17.27-17.26h0A17.27,17.27,0,0,1,521.16,355.87Z"/><path id="Rectangle_103" data-name="Rectangle 103" class="cls-10" d="M745.59,355.87h0a17.27,17.27,0,0,1,17.27,17.26h0a17.26,17.26,0,0,1-17.27,17.26h0a17.26,17.26,0,0,1-17.26-17.26h0A17.26,17.26,0,0,1,745.59,355.87Z"/></g><rect class="cls-7" x="331.14" y="588.67" width="97.42" height="37.28" rx="6.45" transform="matrix(1, -0.1, 0.1, 1, -56.86, 39.51)"/><rect class="cls-8" x="399.65" y="597.38" width="17.19" height="14.34" rx="3.14" transform="matrix(-1, 0.1, -0.1, -1, 872.95, 1166.86)"/><path class="cls-18" d="M391,570.22s11.29-140.62,799.34-153.5"/><path class="cls-19" d="M804.08,622.14s42-111.22,398.84-185.86"/><path class="cls-10" d="M167.3,726.21H2581.72a0,0,0,0,1,0,0v38.36a37.92,37.92,0,0,1-37.92,37.92H205.21a37.92,37.92,0,0,1-37.92-37.92V726.21A0,0,0,0,1,167.3,726.21Z"/></g></g></svg>