<svg width="441" height="359" viewBox="0 0 441 359" fill="none" xmlns="http://www.w3.org/2000/svg">
<rect x="79" y="71" width="113" height="13" rx="6.5" fill="#66D2C7"/>
<rect x="91" y="58" width="68" height="13" rx="6.5" fill="#66D2C7"/>
<rect x="140" y="84" width="39" height="10" rx="5" fill="#66D2C7"/>
<ellipse cx="63.5" cy="94" rx="6.5" ry="6" fill="#66D2C7"/>
<rect x="321" y="134" width="94" height="13" rx="6.5" fill="#66D2C7"/>
<rect x="331" y="122" width="58" height="13" rx="6.5" fill="#66D2C7"/>
<ellipse cx="428.5" cy="128.5" rx="6.5" ry="5.5" fill="#66D2C7"/>
<path d="M410 280.5C410 259.681 401.94 239.714 387.594 224.992C373.247 210.271 353.789 202 333.5 202C313.211 202 293.753 210.271 279.406 224.992C265.06 239.714 257 259.68 257 280.5L333.5 280.5H410Z" fill="#317CA8"/>
<rect width="3" height="52" rx="1.5" transform="matrix(-1 0 0 1 304 163)" fill="#317CA8"/>
<rect width="3" height="26" rx="1.5" transform="matrix(0 -1 -1 0 316 171)" fill="#317CA8"/>
<rect width="3" height="26" rx="1.5" transform="matrix(0 -1 -1 0 316 178)" fill="#317CA8"/>
<rect width="1.5" height="35" rx="0.75" transform="matrix(-1 0 0 1 101 106)" fill="#317CA8"/>
<rect width="2.01923" height="13" rx="1.00962" transform="matrix(0 -1 -1 0 107 111.385)" fill="#317CA8"/>
<rect width="2.01923" height="13" rx="1.00962" transform="matrix(0 -1 -1 0 107 116.096)" fill="#317CA8"/>
<path d="M441 281C441 266.413 434.415 252.424 422.694 242.109C410.973 231.795 395.076 226 378.5 226C361.924 226 346.027 231.795 334.306 242.109C322.585 252.424 316 266.413 316 281L378.5 281H441Z" fill="#66D2C7"/>
<path d="M363 281C363 269.33 359.154 258.139 352.309 249.887C345.464 241.636 336.18 237 326.5 237C316.82 237 307.536 241.636 300.691 249.887C293.846 258.139 290 269.33 290 281L326.5 281H363Z" fill="#EE6B47"/>
<path d="M113 119C168.212 167.518 207.839 178.2 286 183" stroke="#EE786D" stroke-width="3" stroke-linecap="round"/>
<path d="M201 163L246 77.5" stroke="#EE786D" stroke-width="5" stroke-linecap="round"/>
<path d="M295.5 41C295.5 62.1791 277.677 79.5 255.5 79.5C233.323 79.5 215.5 62.1791 215.5 41C215.5 19.8209 233.323 2.5 255.5 2.5C277.677 2.5 295.5 19.8209 295.5 41Z" fill="white" stroke="#EE786D" stroke-width="5"/>
<path d="M255.5 49L237.746 16L273.254 16L255.5 49Z" fill="#EE786D"/>
<ellipse cx="255" cy="64.5" rx="6" ry="6.5" fill="#EE786D"/>
<path d="M83 110L138.426 206.75H27.5744L83 110Z" fill="#317CA8"/>
<path d="M40 126L74.641 207H5.35898L40 126Z" fill="#66D2C7"/>
<path d="M80.5 157L108.646 207.25H52.3542L80.5 157Z" fill="#EE6B47"/>
</svg>
