<svg xmlns="http://www.w3.org/2000/svg" viewBox="0 0 1537 306"><defs><style>.cls-1,.cls-10,.cls-11,.cls-12,.cls-2,.cls-3,.cls-7,.cls-8,.cls-9{fill:none;stroke-linecap:round;}.cls-1,.cls-12,.cls-9{stroke:#ed6a48;}.cls-1,.cls-2{stroke-width:3px;}.cls-10,.cls-11,.cls-2{stroke:#6fc9c2;}.cls-3,.cls-7,.cls-8{stroke:#317ca8;}.cls-11,.cls-12,.cls-3{stroke-width:3px;}.cls-4{fill:#317ca8;}.cls-5{fill:#ed6a48;}.cls-6{fill:#6fc9c2;}.cls-7{stroke-width:4px;}.cls-8{stroke-width:7px;}.cls-10,.cls-9{stroke-miterlimit:4;stroke-width:5px;}</style></defs><g id="Layer_2" data-name="Layer 2"><g id="Layer_2-2" data-name="Layer 2"><path id="Path_87" data-name="Path 87" class="cls-1" d="M1270.34,185s-54.19,8.87-86.45-27.93"/><path id="Path_88" data-name="Path 88" class="cls-2" d="M265.89,185s54.19,8.87,86.45-27.93"/><g id="Group_111" data-name="Group 111"><path id="Path_49" data-name="Path 49" class="cls-3" d="M1172.2,137.91v49.88"/><path id="Path_51" data-name="Path 51" class="cls-3" d="M1160.35,148.87h23.39"/><path id="Path_63" data-name="Path 63" class="cls-3" d="M1160.35,142.62h23.39"/></g><path id="Intersection_1" data-name="Intersection 1" class="cls-4" d="M0,273a170,170,0,0,1,340,0Z"/><path id="Intersection_2" data-name="Intersection 2" class="cls-5" d="M268,273c0-46.94,37.83-85,84.5-85S437,226.06,437,273Z"/><path id="Intersection_3" data-name="Intersection 3" class="cls-6" d="M77,273c0-64.62,51.94-117,116-117s116,52.38,116,117Z"/><path id="Polygon_27" data-name="Polygon 27" class="cls-5" d="M1172,174l57,100H1115Z"/><path id="Polygon_28" data-name="Polygon 28" class="cls-6" d="M1289,131l83,143H1206Z"/><path id="Polygon_29" data-name="Polygon 29" class="cls-4" d="M1423,76l114,198H1309Z"/><g id="Group_107" data-name="Group 107"><path id="Path_49-2" data-name="Path 49-2" class="cls-7" d="M465.23,187.94v87.85"/><path id="Path_51-2" data-name="Path 51-2" class="cls-7" d="M444.35,207.23h41.2"/><path id="Path_63-2" data-name="Path 63-2" class="cls-7" d="M444.35,196.23h41.2"/></g><g id="Group_110" data-name="Group 110"><path id="Path_49-3" data-name="Path 49-3" class="cls-3" d="M364.2,137.91v49.88"/><path id="Path_51-3" data-name="Path 51-3" class="cls-3" d="M352.35,148.87h23.39"/><path id="Path_63-3" data-name="Path 63-3" class="cls-3" d="M352.35,142.62h23.39"/></g><g id="Group_108" data-name="Group 108"><path id="Path_52" data-name="Path 52" class="cls-8" d="M768.49,112.46v170.8"/><path id="Path_53" data-name="Path 53" class="cls-8" d="M727.9,150H808"/><path id="Path_64" data-name="Path 64" class="cls-8" d="M727.9,128.59H808"/></g><g id="Group_109" data-name="Group 109"><path id="Path_52-2" data-name="Path 52-2" class="cls-7" d="M1071.23,187.94v87.85"/><path id="Path_53-2" data-name="Path 53-2" class="cls-7" d="M1050.35,207.23h41.2"/><path id="Path_64-2" data-name="Path 64-2" class="cls-7" d="M1050.35,196.23h41.2"/></g><path id="Path_83" data-name="Path 83" class="cls-9" d="M806.62,166.24s100.35,70.89,243,51.68"/><path id="Path_84" data-name="Path 84" class="cls-10" d="M728.18,166.65s-100.36,70.89-243,51.68"/><path id="Path_85" data-name="Path 85" class="cls-11" d="M1160.35,156.2s-20.3,51-68.46,59.72"/><path id="Path_86" data-name="Path 86" class="cls-12" d="M375.89,156.2s20.3,51,68.46,59.72"/><path id="Rectangle_99" data-name="Rectangle 99" class="cls-6" d="M0,272H1537v4a30,30,0,0,1-30,30H30A30,30,0,0,1,0,276v-4Z"/><g id="Group_115" data-name="Group 115"><path id="Rectangle_105" data-name="Rectangle 105" class="cls-6" d="M301,54H471a11,11,0,0,1,11,11h0a11,11,0,0,1-11,11H301a11,11,0,0,1-11-11h0A11,11,0,0,1,301,54Z"/><path id="Rectangle_104" data-name="Rectangle 104" class="cls-6" d="M269.5,68h0A10.5,10.5,0,0,1,280,78.5v1A10.5,10.5,0,0,1,269.5,90h0A10.5,10.5,0,0,1,259,79.5v-1A10.5,10.5,0,0,1,269.5,68Z"/><path id="Rectangle_107" data-name="Rectangle 107" class="cls-6" d="M326,40h91a11,11,0,0,1,11,11h0a11,11,0,0,1-11,11H326a11,11,0,0,1-11-11h0A11,11,0,0,1,326,40Z"/><path id="Rectangle_106" data-name="Rectangle 106" class="cls-6" d="M411,68h34a11,11,0,0,1,11,11h0a11,11,0,0,1-11,11H411a11,11,0,0,1-11-11h0A11,11,0,0,1,411,68Z"/></g><g id="Group_114" data-name="Group 114"><path id="Rectangle_101" data-name="Rectangle 101" class="cls-6" d="M1130,54h158a11,11,0,0,1,11,11h0a11,11,0,0,1-11,11H1130a11,11,0,0,1-11-11h0A11,11,0,0,1,1130,54Z"/><path id="Rectangle_102" data-name="Rectangle 102" class="cls-6" d="M1171,40h70a11,11,0,0,1,11,11h0a11,11,0,0,1-11,11h-70a11,11,0,0,1-11-11h0A11,11,0,0,1,1171,40Z"/><path id="Rectangle_103" data-name="Rectangle 103" class="cls-6" d="M1314,40h0a11,11,0,0,1,11,11h0a11,11,0,0,1-11,11h0a11,11,0,0,1-11-11h0A11,11,0,0,1,1314,40Z"/></g><circle id="Ellipse_17" data-name="Ellipse 17" class="cls-5" cx="768" cy="31" r="31"/></g></g></svg>