<svg xmlns="http://www.w3.org/2000/svg" viewBox="0 0 840 601"><defs><style>.cls-1{fill:#317ca8;}.cls-2{fill:#6fc9c2;}.cls-3{fill:#ed6a48;}.cls-4,.cls-5,.cls-7{fill:none;}.cls-4{stroke:#317ca8;}.cls-4,.cls-5{stroke-linecap:round;stroke-width:4px;}.cls-5,.cls-7{stroke:#ed6a48;}.cls-6{fill:#fff;stroke:#de7251;stroke-width:10px;}.cls-7{stroke-width:8px;}</style></defs><g id="Layer_2" data-name="Layer 2"><g id="Layer_2-2" data-name="Layer 2"><path id="Polygon_32" data-name="Polygon 32" class="cls-1" d="M253,233,367,431H139Z"/><path id="Polygon_31" data-name="Polygon 31" class="cls-2" d="M163,288l83,143H80Z"/><path id="Polygon_30" data-name="Polygon 30" class="cls-3" d="M256,331l57,100H199Z"/><path id="Intersection_4" data-name="Intersection 4" class="cls-1" d="M445,601a170,170,0,0,1,340,0Z"/><path id="Intersection_6" data-name="Intersection 6" class="cls-2" d="M582,601c0-64.62,51.94-117,116-117s116,52.38,116,117Z"/><path id="Intersection_5" data-name="Intersection 5" class="cls-3" d="M531,601c0-46.94,37.83-85,84.5-85S700,554.06,700,601Z"/><g id="Group_116" data-name="Group 116"><path id="Rectangle_105" data-name="Rectangle 105" class="cls-2" d="M42,187H212a11,11,0,0,1,11,11h0a11,11,0,0,1-11,11H42a11,11,0,0,1-11-11h0A11,11,0,0,1,42,187Z"/><path id="Rectangle_104" data-name="Rectangle 104" class="cls-2" d="M10.5,201h0A10.5,10.5,0,0,1,21,211.5v1A10.5,10.5,0,0,1,10.5,223h0A10.5,10.5,0,0,1,0,212.5v-1A10.5,10.5,0,0,1,10.5,201Z"/><path id="Rectangle_107" data-name="Rectangle 107" class="cls-2" d="M67,173h91a11,11,0,0,1,11,11h0a11,11,0,0,1-11,11H67a11,11,0,0,1-11-11h0A11,11,0,0,1,67,173Z"/><path id="Rectangle_106" data-name="Rectangle 106" class="cls-2" d="M152,201h34a11,11,0,0,1,11,11h0a11,11,0,0,1-11,11H152a11,11,0,0,1-11-11h0A11,11,0,0,1,152,201Z"/></g><g id="Group_117" data-name="Group 117"><path id="Rectangle_101" data-name="Rectangle 101" class="cls-2" d="M645,361H803a11,11,0,0,1,11,11h0a11,11,0,0,1-11,11H645a11,11,0,0,1-11-11h0A11,11,0,0,1,645,361Z"/><path id="Rectangle_102" data-name="Rectangle 102" class="cls-2" d="M686,347h70a11,11,0,0,1,11,11h0a11,11,0,0,1-11,11H686a11,11,0,0,1-11-11h0A11,11,0,0,1,686,347Z"/><path id="Rectangle_103" data-name="Rectangle 103" class="cls-2" d="M829,347h0a11,11,0,0,1,11,11h0a11,11,0,0,1-11,11h0a11,11,0,0,1-11-11h0A11,11,0,0,1,829,347Z"/></g><g id="Group_118" data-name="Group 118"><path id="Path_52" data-name="Path 52" class="cls-4" d="M576.23,353.94v87.85"/><path id="Path_53" data-name="Path 53" class="cls-4" d="M555.35,373.23h41.2"/><path id="Path_64" data-name="Path 64" class="cls-4" d="M555.35,362.23h41.2"/></g><g id="Group_119" data-name="Group 119"><path id="Path_52-2" data-name="Path 52-2" class="cls-4" d="M274.23,188.94v87.85"/><path id="Path_53-2" data-name="Path 53-2" class="cls-4" d="M253.35,208.23h41.2"/><path id="Path_64-2" data-name="Path 64-2" class="cls-4" d="M253.35,197.23h41.2"/></g><path id="Path_89" data-name="Path 89" class="cls-5" d="M294.58,220.81s74.27,141.74,260.1,162.72"/><circle id="Ellipse_21" data-name="Ellipse 21" class="cls-6" cx="614" cy="89" r="84"/><path id="Polygon_33" data-name="Polygon 33" class="cls-3" d="M614,103,584,38h60Z"/><circle id="Ellipse_22" data-name="Ellipse 22" class="cls-3" cx="614" cy="129" r="14"/><path id="Path_90" data-name="Path 90" class="cls-7" d="M567,155.31,402.11,330.87"/></g></g></svg>