<svg width="454" height="403" viewBox="0 0 454 403" fill="none" xmlns="http://www.w3.org/2000/svg">
<rect x="400" y="313" width="10" height="20" fill="#C4C4C4"/>
<path d="M0 254H454V321C454 327.627 448.627 333 442 333H12C5.37259 333 0 327.627 0 321V254Z" fill="#66D2C7"/>
<path d="M215.664 56.2431C218.78 51.1179 226.22 51.1179 229.336 56.2431L378.355 301.344C381.596 306.675 377.759 313.5 371.519 313.5H73.4807C67.2414 313.5 63.4036 306.675 66.645 301.344L215.664 56.2431Z" fill="#B4B4B4"/>
<path d="M64.7887 227.453H170.054V314.155H74.7886C69.2658 314.155 64.7887 309.678 64.7887 304.155V227.453Z" fill="#EE6B47"/>
<path d="M118 179L184.684 236.958H51.316L118 179Z" fill="#27668A"/>
<path d="M229.911 172.284H384.392V304.155C384.392 309.678 379.914 314.155 374.392 314.155H229.911V172.284Z" fill="#398DBF"/>
<path d="M308 93L405.861 187.838H210.139L308 93Z" fill="#27668A"/>
<rect x="203.073" y="258.245" width="79.9747" height="55.9099" fill="#FBDD83"/>
<path d="M243.5 227L294.162 264.375H192.838L243.5 227Z" fill="#27668A"/>
<path d="M395 293H410V305.5C410 309.642 406.642 313 402.5 313C398.358 313 395 309.642 395 305.5V293Z" fill="#C4C4C4"/>
<path d="M436 244H446V254C446 256.761 443.761 259 441 259C438.239 259 436 256.761 436 254V244Z" fill="#C4C4C4"/>
<path d="M34 294H49V306.5C49 310.642 45.6421 314 41.5 314C37.3579 314 34 310.642 34 306.5V294Z" fill="#C4C4C4"/>
<path d="M6 243H16V253C16 255.761 13.7614 258 11 258C8.23858 258 6 255.761 6 253V243Z" fill="#C4C4C4"/>
<rect x="6" y="235" width="10" height="6" fill="#2D9D39"/>
<rect x="436" y="236" width="10" height="6" fill="#2D9D39"/>
<rect x="395" y="282" width="15" height="8" fill="#2D9D39"/>
<rect x="34" y="283" width="15" height="8" fill="#2D9D39"/>
<path d="M220.952 32.9458L217.376 30.1683L210.023 38.326L213.599 41.1034L220.952 32.9458Z" fill="#F36910"/>
<path d="M236.595 28.4049C235.784 25.3481 233.934 22.6151 231.318 20.6111L225.759 16.2857L225.764 16.2806L219.68 11.5549L209.575 22.7655L207.05 25.5669L199.439 34.0106L185 50.0273L191.084 54.753L205.522 38.7363L210.616 42.6926C210.969 42.9929 211.336 43.2781 211.718 43.5481C214.19 45.3015 217.167 46.3332 220.273 46.5122C220.604 46.5321 220.938 46.5424 221.275 46.5424C223.667 46.5411 226.027 46.0354 228.177 45.0633C230.327 44.0913 232.211 42.6784 233.686 40.9315C235.162 39.1845 236.19 37.1491 236.694 34.979C237.198 32.809 237.164 30.561 236.595 28.4049H236.595ZM228.894 19.0784L228.885 19.0739L228.894 19.0784ZM228.603 18.9329L228.567 18.9156L228.603 18.9329ZM228.308 18.7927L228.254 18.7681L228.308 18.7927ZM228.011 18.6583L227.941 18.6283L228.011 18.6583ZM227.709 18.5296L227.628 18.4963L227.709 18.5296ZM227.405 18.4067L227.312 18.3712C227.344 18.3829 227.374 18.3946 227.405 18.4067H227.405ZM227.096 18.2896C227.063 18.2773 227.03 18.2653 226.997 18.2532C227.03 18.2653 227.063 18.2773 227.097 18.2896H227.096ZM226.785 18.1784L226.678 18.1418L226.785 18.1784ZM226.471 18.0731C226.433 18.0608 226.395 18.0489 226.357 18.0368C226.396 18.0487 226.434 18.0608 226.471 18.0731H226.471ZM226.154 17.9739C226.114 17.9617 226.074 17.9502 226.034 17.9385C226.075 17.9502 226.114 17.9617 226.154 17.9739H226.154ZM225.833 17.8807C225.792 17.8692 225.75 17.8578 225.709 17.8466C225.751 17.8578 225.792 17.8692 225.833 17.8807H225.833ZM225.509 17.7938C225.467 17.7828 225.424 17.7717 225.381 17.761C225.425 17.7717 225.467 17.7828 225.51 17.7938H225.509ZM225.184 17.7132C225.14 17.7026 225.096 17.6921 225.051 17.682C225.096 17.6923 225.14 17.7026 225.184 17.7133L225.184 17.7132ZM224.855 17.6387C224.809 17.629 224.764 17.6188 224.718 17.6095C224.765 17.6186 224.81 17.6292 224.856 17.6385L224.855 17.6387ZM215.205 38.4402L209.667 34.1387L221.592 20.9093L226.806 24.9589L227.635 25.6033C229.392 27.1298 230.443 29.2291 230.567 31.46C230.691 33.6909 229.879 35.8796 228.301 37.5661C226.723 39.2527 224.502 40.3057 222.105 40.5038C219.708 40.7019 217.321 40.0298 215.447 38.6287L215.205 38.4402Z" fill="#F36910"/>
<path d="M234.682 0C232.847 4.52846e-10 231.054 0.504956 229.529 1.45101C228.003 2.39706 226.815 3.74172 226.113 5.31495C225.411 6.88817 225.227 8.6193 225.585 10.2894C225.943 11.9595 226.826 13.4936 228.123 14.6977C229.42 15.9018 231.073 16.7218 232.872 17.054C234.672 17.3861 236.537 17.2156 238.231 16.5639C239.926 15.9123 241.375 14.8087 242.394 13.3928C243.413 11.9769 243.957 10.3123 243.957 8.60948C243.957 6.32609 242.98 4.13623 241.24 2.52165C239.501 0.907063 237.142 -6.07226e-10 234.682 0V0ZM234.682 11.4935C234.067 11.4935 233.467 11.3243 232.956 11.0074C232.445 10.6905 232.047 10.2401 231.812 9.7132C231.577 9.18625 231.515 8.60642 231.635 8.04702C231.755 7.48762 232.051 6.97379 232.485 6.57049C232.92 6.16718 233.473 5.89253 234.076 5.78125C234.679 5.66997 235.303 5.72706 235.871 5.9453C236.439 6.16355 236.924 6.53315 237.265 7.00737C237.607 7.48159 237.789 8.03913 237.789 8.60948C237.789 9.37438 237.461 10.108 236.879 10.6488C236.296 11.1897 235.506 11.4935 234.682 11.4935Z" fill="#F36910"/>
<path d="M252 8.60944L245.633 5.19702V12.0219L252 8.60944Z" fill="#F36910"/>
</svg>
