<svg xmlns="http://www.w3.org/2000/svg" viewBox="0 0 621.81 445.85"><defs><style>.cls-1{fill:#317ca8;}.cls-2,.cls-3,.cls-6,.cls-7{fill:none;stroke-linecap:round;}.cls-2{stroke:#ed6a48;}.cls-2,.cls-7{stroke-width:5px;}.cls-3{stroke:#317ca8;}.cls-3,.cls-6{stroke-width:5.7px;}.cls-4{fill:#ed6a48;}.cls-5{fill:#6fc9c2;}.cls-6,.cls-7{stroke:#fff;}</style></defs><g id="Layer_2" data-name="Layer 2"><g id="Layer_2-2" data-name="Layer 2"><path id="Polygon_29" data-name="Polygon 29" class="cls-1" d="M303.52,73.46,512.06,435.67H78.59L287.13,73.46A9.45,9.45,0,0,1,303.52,73.46Z"/><path id="Path_87" data-name="Path 87" class="cls-2" d="M441.78,115.14S349,245.55,131,213.4"/><g id="Group_111" data-name="Group 111"><path id="Path_49" data-name="Path 49" class="cls-3" d="M108.75,176.94v94.83"/><path id="Path_51" data-name="Path 51" class="cls-3" d="M86.21,197.77h44.48"/><path id="Path_63" data-name="Path 63" class="cls-3" d="M86.21,185.89h44.48"/></g><g id="Group_111-2" data-name="Group 111"><path id="Path_49-2" data-name="Path 49" class="cls-3" d="M464.32,82.11v94.83"/><path id="Path_51-2" data-name="Path 51" class="cls-3" d="M441.78,102.94h44.47"/><path id="Path_63-2" data-name="Path 63" class="cls-3" d="M441.78,91.06h44.47"/></g><path id="Polygon_27" data-name="Polygon 27" class="cls-4" d="M108.37,245.55,216.74,435.67H0Z"/><path id="Polygon_28" data-name="Polygon 28" class="cls-5" d="M464,163.8,621.81,435.67H306.22Z"/><rect class="cls-4" x="287.59" y="38.78" width="6.2" height="13.49" transform="translate(96.96 -175.93) rotate(39.92)"/><path class="cls-4" d="M315,36a18.53,18.53,0,0,0-6.21-9.88l-6.54-5.49h0l-7.16-6L283.15,28.87l-3,3.55-9,10.71h0l-17,20.32,7.16,6,17-20.31,6,5c.42.38.85.75,1.3,1.09A18.5,18.5,0,0,0,295.74,59c.39,0,.78,0,1.18,0a18.56,18.56,0,0,0,18-23ZM305.89,24.2h0Zm-.34-.19-.05,0Zm-.35-.18-.06,0Zm-.35-.17-.08,0Zm-.36-.16-.09,0Zm-.36-.16-.1,0Zm-.36-.15-.12,0Zm-.36-.14-.13,0Zm-.37-.13-.14-.05Zm-.38-.13-.14,0Zm-.38-.11-.14-.05Zm-.38-.11-.15-.05Zm-.38-.11-.16,0Zm-.39-.09-.16,0ZM289.77,48.75l-6.52-5.46,14-16.77,6.14,5.13,1,.82A10.95,10.95,0,0,1,290.06,49Z"/><path class="cls-4" d="M312.7,0a10.92,10.92,0,1,0,10.92,10.92A10.92,10.92,0,0,0,312.7,0Zm0,14.58a3.66,3.66,0,1,1,3.66-3.66A3.66,3.66,0,0,1,312.7,14.58Z"/><polygon class="cls-4" points="333.09 10.92 325.59 6.59 325.59 15.25 333.09 10.92"/><g id="Group_111-3" data-name="Group 111"><path id="Path_49-3" data-name="Path 49" class="cls-6" d="M307.57,348.17V443"/><path id="Path_51-3" data-name="Path 51" class="cls-6" d="M285,369h44.48"/><path id="Path_63-3" data-name="Path 63" class="cls-6" d="M285,357.13h44.48"/></g><g id="Group_111-4" data-name="Group 111"><path id="Path_49-4" data-name="Path 49" class="cls-6" d="M94.56,348.17V443"/><path id="Path_51-4" data-name="Path 51" class="cls-6" d="M72,369H116.5"/><path id="Path_63-4" data-name="Path 63" class="cls-6" d="M72,357.13H116.5"/></g><g id="Group_111-5" data-name="Group 111"><path id="Path_49-5" data-name="Path 49" class="cls-6" d="M520.57,348.17V443"/><path id="Path_51-5" data-name="Path 51" class="cls-6" d="M498,369h44.47"/><path id="Path_63-5" data-name="Path 63" class="cls-6" d="M498,357.13h44.47"/></g><path class="cls-7" d="M116.5,382s79.84,33.54,168.53,0"/><path class="cls-7" d="M329.51,382s79.84,33.54,168.53,0"/></g></g></svg>