<svg xmlns="http://www.w3.org/2000/svg" viewBox="0 0 291.62 101.13"><defs><style>.cls-1{font-size:60px;font-family:Poppins-SemiBold, Poppins;}.cls-1,.cls-2{fill:#317ca8;font-weight:600;}.cls-2{font-size:31px;font-family:ProximaNova-Semibold, Proxima Nova;letter-spacing:0.03em;}.cls-3{fill:#ed6a48;}</style></defs><g id="Layer_2" data-name="Layer 2"><g id="Layer_2-2" data-name="Layer 2"><text class="cls-1" transform="translate(113.9 51.63)">perch</text><text class="cls-2" transform="translate(130.67 90.12)">SENSING</text><circle class="cls-3" cx="61.53" cy="29.5" r="4.1"/><path class="cls-3" d="M43.85,74.84a12.27,12.27,0,0,0,8.39-21.21l-1.1-.91L44.27,47,28.55,65.76,32,68.66l7.05-8.43,5.33,4.46-7,8.32A12.24,12.24,0,0,0,43.85,74.84Z"/><path class="cls-3" d="M49.3,0A49.31,49.31,0,0,0,7.2,75l7.86-9.4,10-12,3.33-4L41.75,33.68l8,6.71h0l7.33,6.14A20.79,20.79,0,0,1,43.85,83.37c-.44,0-.88,0-1.32,0a20.7,20.7,0,0,1-11.28-4.21A18.71,18.71,0,0,1,29.8,77.9l-6.72-5.61L13.75,83.44A49.3,49.3,0,1,0,49.3,0ZM61.53,41.73A12.23,12.23,0,1,1,73.75,29.5,12.23,12.23,0,0,1,61.53,41.73ZM76,34.34V24.65l8.4,4.85Z"/></g></g></svg>