<svg xmlns="http://www.w3.org/2000/svg" viewBox="0 0 1560.2 91.85"><defs><style>.cls-1,.cls-2{fill:none;stroke-linecap:round;stroke-width:4px;}.cls-1{stroke:#317ca8;}.cls-2{stroke:#6fc9c2;}</style></defs><g id="Layer_2" data-name="Layer 2"><g id="Layer_2-2" data-name="Layer 2"><g id="Group_104" data-name="Group 104"><path id="Path_44" data-name="Path 44" class="cls-1" d="M22.88,2V89.85"/><path id="Path_48" data-name="Path 48" class="cls-1" d="M325.88,2V89.85"/><path id="Path_49" data-name="Path 49" class="cls-1" d="M628.88,2V89.85"/><path id="Path_52" data-name="Path 52" class="cls-1" d="M931.88,2V89.85"/><path id="Path_57" data-name="Path 57" class="cls-1" d="M1234.88,2V89.85"/><path id="Path_59" data-name="Path 59" class="cls-1" d="M1537.88,2V89.85"/><path id="Path_45" data-name="Path 45" class="cls-1" d="M2,21.3H43.2"/><path id="Path_61" data-name="Path 61" class="cls-1" d="M2,10.3H43.2"/><path id="Path_47" data-name="Path 47" class="cls-1" d="M305,21.3h41.2"/><path id="Path_62" data-name="Path 62" class="cls-1" d="M305,10.3h41.2"/><path id="Path_51" data-name="Path 51" class="cls-1" d="M608,21.3h41.2"/><path id="Path_63" data-name="Path 63" class="cls-1" d="M608,10.3h41.2"/><path id="Path_53" data-name="Path 53" class="cls-1" d="M911,21.3h41.2"/><path id="Path_64" data-name="Path 64" class="cls-1" d="M911,10.3h41.2"/><path id="Path_56" data-name="Path 56" class="cls-1" d="M1214,21.3h41.2"/><path id="Path_65" data-name="Path 65" class="cls-1" d="M1214,10.3h41.2"/><path id="Path_58" data-name="Path 58" class="cls-1" d="M1517,21.3h41.2"/><path id="Path_66" data-name="Path 66" class="cls-1" d="M1517,10.3h41.2"/></g><path id="Path_46" data-name="Path 46" class="cls-2" d="M43.2,36.57s118.94,24.56,261.7,0"/><path id="Path_50" data-name="Path 50" class="cls-2" d="M346.2,36.57s118.94,24.56,261.7,0"/><path id="Path_54" data-name="Path 54" class="cls-2" d="M649.2,36.57s118.94,24.56,261.7,0"/><path id="Path_55" data-name="Path 55" class="cls-2" d="M952.2,36.57s118.94,24.56,261.7,0"/><path id="Path_60" data-name="Path 60" class="cls-2" d="M1255.2,36.57s118.94,24.56,261.7,0"/></g></g></svg>