<svg xmlns="http://www.w3.org/2000/svg" viewBox="0 0 1995.82 989.51"><defs><style>.cls-1,.cls-10,.cls-3,.cls-4,.cls-7,.cls-8,.cls-9{fill:none;stroke-linecap:round;}.cls-1{stroke:#6fc9c2;}.cls-1,.cls-4,.cls-8{stroke-width:3px;}.cls-2,.cls-32{fill:#317ca8;}.cls-3,.cls-8,.cls-9{stroke:#ed6a48;}.cls-3{stroke-width:3px;}.cls-4,.cls-7{stroke:#317ca8;}.cls-26,.cls-28,.cls-5{fill:#ed6a48;}.cls-16,.cls-6{fill:#6fc9c2;}.cls-7{stroke-width:4px;}.cls-9{stroke-width:2.69px;}.cls-10{stroke:#fff;stroke-linejoin:round;stroke-width:2.79px;}.cls-11{font-size:40px;fill:#fff;}.cls-11,.cls-16,.cls-28,.cls-32{font-family:FiraSans-SemiBold, Fira Sans;font-weight:600;}.cls-12{letter-spacing:0em;}.cls-13{letter-spacing:-0.01em;}.cls-14{letter-spacing:0em;}.cls-15{letter-spacing:-0.05em;}.cls-16,.cls-28,.cls-32{font-size:25px;}.cls-17{letter-spacing:0em;}.cls-18{letter-spacing:-0.01em;}.cls-19,.cls-26{font-size:30px;}.cls-19{fill:#181818;font-family:NunitoSans-Regular, Nunito Sans;font-weight:400;}.cls-20{letter-spacing:-0.01em;}.cls-21{letter-spacing:0.02em;}.cls-22{letter-spacing:0em;}.cls-23{letter-spacing:0em;}.cls-24{letter-spacing:0em;}.cls-25{letter-spacing:0em;}.cls-26{font-family:NunitoSans-Bold, Nunito Sans;font-weight:700;}.cls-27{letter-spacing:-0.02em;}.cls-29{letter-spacing:-0.01em;}.cls-30{letter-spacing:0.04em;}.cls-31{letter-spacing:-0.04em;}.cls-33{letter-spacing:-0.05em;}.cls-34{letter-spacing:-0.01em;}.cls-35{letter-spacing:-0.01em;}.cls-36{letter-spacing:-0.03em;}.cls-37{letter-spacing:0em;}.cls-38{letter-spacing:-0.01em;}.cls-39{letter-spacing:-0.01em;}.cls-40{letter-spacing:-0.03em;}.cls-41{letter-spacing:-0.01em;}.cls-42{letter-spacing:-0.02em;}.cls-43{letter-spacing:-0.03em;}.cls-44{letter-spacing:-0.07em;}.cls-45{letter-spacing:-0.02em;}.cls-46{letter-spacing:-0.06em;}.cls-47{letter-spacing:-0.06em;}.cls-48{letter-spacing:-0.02em;}.cls-49{letter-spacing:0em;}</style></defs><g id="Layer_2" data-name="Layer 2"><g id="Layer_2-2" data-name="Layer 2"><line class="cls-1" x1="1665.26" y1="835" x2="1623.6" y2="782.89"/><path id="Polygon_29" data-name="Polygon 29" class="cls-2" d="M1143.21,640l114,198h-228Z"/><path id="Path_87" data-name="Path 87" class="cls-3" d="M1220.25,669.4s-48.82,68.59-163.48,51.69"/><g id="Group_111" data-name="Group 111"><path id="Path_49" data-name="Path 49" class="cls-4" d="M1045.08,701.91v49.87"/><path id="Path_51" data-name="Path 51" class="cls-4" d="M1033.22,712.86h23.4"/><path id="Path_63" data-name="Path 63" class="cls-4" d="M1033.22,706.62h23.4"/></g><g id="Group_111-2" data-name="Group 111"><path id="Path_49-2" data-name="Path 49" class="cls-4" d="M1232.1,652v49.88"/><path id="Path_51-2" data-name="Path 51" class="cls-4" d="M1220.25,663h23.39"/><path id="Path_63-2" data-name="Path 63" class="cls-4" d="M1220.25,656.74h23.39"/></g><path id="Intersection_1" data-name="Intersection 1" class="cls-2" d="M46.48,827.06a123.65,123.65,0,1,1,247.29,0Z"/><path id="Intersection_2" data-name="Intersection 2" class="cls-5" d="M159.35,837c0-40.61,32.73-73.53,73.1-73.53s73.1,32.92,73.1,73.53Z"/><path id="Intersection_3" data-name="Intersection 3" class="cls-6" d="M0,837c0-52.27,42-94.65,93.84-94.65s93.84,42.38,93.84,94.65Z"/><path id="Polygon_27" data-name="Polygon 27" class="cls-5" d="M1044.88,738l57,100h-114Z"/><path id="Polygon_28" data-name="Polygon 28" class="cls-6" d="M1231.94,695l83,143h-166Z"/><g id="Group_107" data-name="Group 107"><path id="Path_49-2-2" data-name="Path 49-2" class="cls-7" d="M338.1,751.93v87.86"/><path id="Path_51-2-2" data-name="Path 51-2" class="cls-7" d="M317.22,771.23h41.2"/><path id="Path_63-2-2" data-name="Path 63-2" class="cls-7" d="M317.22,760.23h41.2"/></g><g id="Group_110" data-name="Group 110"><path id="Path_49-3" data-name="Path 49-3" class="cls-4" d="M213.69,665.56v49.88"/><path id="Path_51-3" data-name="Path 51-3" class="cls-4" d="M201.83,676.52h23.39"/><path id="Path_63-3" data-name="Path 63-3" class="cls-4" d="M201.83,670.27h23.39"/></g><g id="Group_109" data-name="Group 109"><path id="Path_52-2" data-name="Path 52-2" class="cls-7" d="M944.1,751.93v87.86"/><path id="Path_53-2" data-name="Path 53-2" class="cls-7" d="M923.22,771.23h41.2"/><path id="Path_64-2" data-name="Path 64-2" class="cls-7" d="M923.22,760.23h41.2"/></g><g id="Group_109-2" data-name="Group 109"><path id="Path_52-2-2" data-name="Path 52-2" class="cls-7" d="M1484.75,751.93v87.86"/><path id="Path_53-2-2" data-name="Path 53-2" class="cls-7" d="M1463.88,771.23h41.2"/><path id="Path_64-2-2" data-name="Path 64-2" class="cls-7" d="M1463.88,760.23h41.2"/></g><g id="Group_109-3" data-name="Group 109"><path id="Path_52-2-3" data-name="Path 52-2" class="cls-7" d="M1607.88,751.93v87.86"/><path id="Path_53-2-3" data-name="Path 53-2" class="cls-7" d="M1587,771.23h41.2"/><path id="Path_64-2-3" data-name="Path 64-2" class="cls-7" d="M1587,760.23h41.2"/></g><g id="Group_109-4" data-name="Group 109"><path id="Path_52-2-4" data-name="Path 52-2" class="cls-7" d="M641.1,751.93v87.86"/><path id="Path_53-2-4" data-name="Path 53-2" class="cls-7" d="M620.22,771.23h41.2"/><path id="Path_64-2-4" data-name="Path 64-2" class="cls-7" d="M620.22,760.23h41.2"/></g><path id="Path_83" data-name="Path 83" class="cls-8" d="M672.49,779.91s100.36,21.22,243,2"/><path id="Path_83-2" data-name="Path 83" class="cls-9" d="M1508.87,779.91s39.08,16,78.16,2"/><path id="Path_84" data-name="Path 84" class="cls-1" d="M607.06,779.91s-100.36,21.63-243,2.41"/><path id="Path_85" data-name="Path 85" class="cls-1" d="M1033.22,720.19s-20.3,51-68.46,59.72"/><path id="Path_85-2" data-name="Path 85" class="cls-1" d="M1463.88,779.38s-155.79,2.15-220.24-110"/><path id="Path_86" data-name="Path 86" class="cls-8" d="M225.22,683.76s36,77.47,92,97.15"/><g id="Group_115" data-name="Group 115"><path id="Rectangle_105" data-name="Rectangle 105" class="cls-6" d="M713.67,618h170a11,11,0,0,1,11,11h0a11,11,0,0,1-11,11h-170a11,11,0,0,1-11-11h0A11,11,0,0,1,713.67,618Z"/><path id="Rectangle_104" data-name="Rectangle 104" class="cls-6" d="M682.17,632h0a10.51,10.51,0,0,1,10.5,10.5v1a10.5,10.5,0,0,1-10.5,10.5h0a10.5,10.5,0,0,1-10.5-10.5v-1A10.51,10.51,0,0,1,682.17,632Z"/><path id="Rectangle_107" data-name="Rectangle 107" class="cls-6" d="M738.67,604h91a11,11,0,0,1,11,11h0a11,11,0,0,1-11,11h-91a11,11,0,0,1-11-11h0A11,11,0,0,1,738.67,604Z"/><path id="Rectangle_106" data-name="Rectangle 106" class="cls-6" d="M823.67,632h34a11,11,0,0,1,11,11h0a11,11,0,0,1-11,11h-34a11,11,0,0,1-11-11h0A11,11,0,0,1,823.67,632Z"/></g><g id="Group_114" data-name="Group 114"><path id="Rectangle_101" data-name="Rectangle 101" class="cls-6" d="M1294.83,618h127.59c4.91,0,8.89,4.93,8.89,11h0c0,6.08-4,11-8.89,11H1294.83c-4.9,0-8.88-4.92-8.88-11h0C1286,622.92,1289.93,618,1294.83,618Z"/><path id="Rectangle_102" data-name="Rectangle 102" class="cls-6" d="M1328,604h70a11,11,0,0,1,11,11h0a11,11,0,0,1-11,11h-70a11,11,0,0,1-11-11h0A11,11,0,0,1,1328,604Z"/><path id="Rectangle_103" data-name="Rectangle 103" class="cls-6" d="M1445.88,604h0a11,11,0,0,1,11,11h0a11,11,0,0,1-11,11h0a11,11,0,0,1-11-11h0A11,11,0,0,1,1445.88,604Z"/></g><rect class="cls-6" y="832.02" width="485.55" height="155.83"/><rect class="cls-2" x="467.79" y="832.02" width="675.42" height="155.83"/><rect class="cls-5" x="1143.21" y="832.02" width="831.66" height="155.83"/><line class="cls-8" x1="388.38" y1="832.02" x2="346.73" y2="779.91"/><polyline class="cls-10" points="391.24 837 415.32 864.77 1974.88 864.77"/><rect class="cls-6" x="1694.71" y="658.51" width="127.84" height="173.52"/><rect class="cls-5" x="1822.55" y="739.7" width="152.33" height="92.32"/><rect class="cls-2" x="1736.99" y="771.23" width="140.96" height="60.79"/><text class="cls-11" transform="translate(58.25 930.97)">S<tspan class="cls-12" x="22.6" y="0">U</tspan><tspan x="48.56" y="0">MMER 2</tspan><tspan class="cls-13" x="188" y="0">0</tspan><tspan class="cls-14" x="210.76" y="0">19</tspan></text><text class="cls-11" transform="translate(532.04 930.97)"><tspan class="cls-15">F</tspan><tspan x="17.52" y="0">ALL 2020</tspan></text><text class="cls-11" transform="translate(1203.25 930.97)">WINTER 2021</text><text class="cls-16" transform="translate(234.68 40.33)">S<tspan class="cls-17" x="14.12" y="0">U</tspan><tspan x="30.35" y="0">MMER 2</tspan><tspan class="cls-18" x="117.5" y="0">0</tspan><tspan x="131.72" y="0">19</tspan><tspan class="cls-19"><tspan class="cls-20" x="0" y="42">C</tspan><tspan class="cls-21" x="20.01" y="42">o</tspan><tspan class="cls-22" x="37.11" y="42">-</tspan><tspan class="cls-17" x="49.86" y="42">f</tspan><tspan x="59.55" y="42">ounde</tspan><tspan class="cls-23" x="143.34" y="42">r</tspan><tspan x="153.78" y="42">s sele</tspan><tspan class="cls-24" x="228.9" y="42">c</tspan><tspan x="243.3" y="42">ted </tspan><tspan class="cls-17" x="294.5" y="42">f</tspan><tspan x="304.19" y="42">or </tspan><tspan x="0" y="75">Summer Unde</tspan><tspan class="cls-20" x="192.63" y="75">r</tspan><tspan x="202.92" y="75">g</tspan><tspan class="cls-25" x="220.5" y="75">r</tspan><tspan x="230.97" y="75">aduate </tspan><tspan x="0" y="108">Resea</tspan><tspan class="cls-20" x="82.5" y="108">r</tspan><tspan x="92.79" y="108">ch </tspan><tspan class="cls-20" x="131.94" y="108">Pr</tspan><tspan x="161.28" y="108">og</tspan><tspan class="cls-25" x="195.51" y="108">r</tspan><tspan x="205.98" y="108">am</tspan></tspan><tspan class="cls-26"><tspan class="cls-27" x="0" y="151">P</tspan><tspan x="19.26" y="151">e</tspan><tspan class="cls-20" x="35.19" y="151">r</tspan><tspan x="46.38" y="151">ch is born!</tspan></tspan><tspan class="cls-19"><tspan x="0" y="196">Joins CIE accele</tspan><tspan class="cls-25" x="208.98" y="196">r</tspan><tspan x="219.45" y="196">ator </tspan><tspan x="0" y="229">p</tspan><tspan class="cls-20" x="17.46" y="229">r</tspan><tspan x="27.75" y="229">og</tspan><tspan class="cls-25" x="61.98" y="229">r</tspan><tspan x="72.45" y="229">am</tspan></tspan></text><text class="cls-28" transform="translate(356.14 460.34)">N<tspan class="cls-29" x="16.7" y="0">O</tspan><tspan x="33.6" y="0">V 2</tspan><tspan class="cls-18" x="66.67" y="0">0</tspan><tspan x="80.9" y="0">19–PRESENT</tspan><tspan class="cls-19"><tspan x="0" y="42">Invited to collabo</tspan><tspan x="227.85" y="42">-</tspan><tspan class="cls-25" x="0" y="75">r</tspan><tspan x="10.47" y="75">ate with Wildland </tspan><tspan x="0" y="108">Urban Inte</tspan><tspan class="cls-30" x="141.18" y="108">r</tspan><tspan class="cls-17" x="152.94" y="108">f</tspan><tspan x="162.63" y="108">ace </tspan><tspan x="0" y="141">S</tspan><tspan class="cls-31" x="18.51" y="141">L</tspan><tspan x="33.63" y="141">O</tspan></tspan></text><text class="cls-32" transform="translate(660.82 257.98)"><tspan class="cls-33">F</tspan><tspan x="10.95" y="0">ALL 2020</tspan><tspan class="cls-26"><tspan class="cls-27" x="0" y="36">P</tspan><tspan x="19.26" y="36">e</tspan><tspan class="cls-20" x="35.19" y="36">r</tspan><tspan x="46.38" y="36">ch team </tspan><tspan x="0" y="63">is </tspan><tspan class="cls-23" x="30.3" y="63">f</tspan><tspan x="40.89" y="63">ormed</tspan></tspan><tspan class="cls-19"><tspan class="cls-34" x="0" y="108">P</tspan><tspan x="19.17" y="108">ublished in </tspan><tspan x="0" y="141">Mu</tspan><tspan class="cls-23" x="42.06" y="141">s</tspan><tspan x="56.31" y="141">tang </tspan><tspan x="0" y="174">N</tspan><tspan class="cls-34" x="22.17" y="174">e</tspan><tspan class="cls-35" x="37.8" y="174">w</tspan><tspan x="62.79" y="174">s</tspan></tspan></text><text class="cls-32" transform="translate(963.82 38.7)">OC<tspan class="cls-36" x="31.55" y="0">T</tspan><tspan x="44.03" y="0">OBER 2020</tspan><tspan class="cls-19"><tspan x="0" y="42">Joined NSF Bay A</tspan><tspan class="cls-20" x="237.66" y="42">r</tspan><tspan x="247.95" y="42">ea </tspan><tspan x="0" y="75">Regional I-</tspan><tspan class="cls-20" x="145.65" y="75">C</tspan><tspan x="165.66" y="75">orps p</tspan><tspan class="cls-20" x="249.96" y="75">r</tspan><tspan x="260.25" y="75">og</tspan><tspan class="cls-25" x="294.48" y="75">r</tspan><tspan x="304.95" y="75">am</tspan><tspan class="cls-20" x="0" y="120">F</tspan><tspan x="16.41" y="120">eatu</tspan><tspan class="cls-20" x="75.15" y="120">r</tspan><tspan x="85.44" y="120">ed on </tspan><tspan class="cls-37" x="167.88" y="120">L</tspan><tspan x="184.05" y="120">ocal N</tspan><tspan class="cls-38" x="267.84" y="120">e</tspan><tspan class="cls-39" x="283.47" y="120">w</tspan><tspan x="308.46" y="120">s </tspan><tspan class="cls-40" x="330.6" y="120">K</tspan><tspan x="348.66" y="120">S</tspan><tspan class="cls-41" x="367.17" y="120">B</tspan><tspan x="386.97" y="120">Y</tspan></tspan></text><text class="cls-32" transform="translate(1061.08 257.98)">DECEMBER 2020<tspan class="cls-19"><tspan x="0" y="42">Inte</tspan><tspan class="cls-20" x="50.73" y="42">r</tspan><tspan x="61.02" y="42">e</tspan><tspan class="cls-23" x="76.83" y="42">s</tspan><tspan x="91.08" y="42">t f</tspan><tspan class="cls-20" x="118.86" y="42">r</tspan><tspan x="129.15" y="42">om Bonn</tspan><tspan class="cls-34" x="250.05" y="42">e</tspan><tspan x="265.68" y="42">ville </tspan><tspan class="cls-42" x="0" y="75">P</tspan><tspan class="cls-38" x="18.87" y="75">ow</tspan><tspan x="60.42" y="75">er Admini</tspan><tspan class="cls-23" x="190.35" y="75">s</tspan><tspan x="204.6" y="75">t</tspan><tspan class="cls-25" x="214.8" y="75">r</tspan><tspan x="225.27" y="75">ation</tspan></tspan></text><text class="cls-28" transform="translate(1248.63 461.56)">JAN<tspan class="cls-18" x="39.2" y="0">U</tspan><tspan x="55.3" y="0">A</tspan><tspan class="cls-43" x="69.95" y="0">R</tspan><tspan x="84.55" y="0">Y 2021</tspan><tspan class="cls-19"><tspan x="0" y="42">Launched our </tspan><tspan x="0" y="75">landing page</tspan></tspan></text><polyline class="cls-8" points="1436.66 422.72 1232.1 422.72 1232.1 618"/><text class="cls-28" transform="translate(1742.98 461.56)">M<tspan class="cls-44" x="19.85" y="0">A</tspan><tspan x="32.75" y="0">Y 2021</tspan><tspan class="cls-19"><tspan x="0" y="42">Depl</tspan><tspan class="cls-34" x="62.4" y="42">o</tspan><tspan x="78.87" y="42">yment on </tspan><tspan class="cls-20" x="0" y="75">C</tspan><tspan x="20.01" y="75">al </tspan><tspan class="cls-45" x="50.61" y="75">P</tspan><tspan x="69.48" y="75">oly </tspan><tspan class="cls-20" x="116.25" y="75">C</tspan><tspan x="136.26" y="75">ampus</tspan></tspan></text><polyline class="cls-8" points="1931 422.72 1726.44 422.72 1726.44 640"/><polyline class="cls-8" points="542.66 422.72 338.1 422.72 338.1 732.04"/><polyline class="cls-4" points="1249.63 217.37 1045.08 217.37 1045.08 677.89"/><text class="cls-28" transform="translate(1623.6 257.98)">MA<tspan class="cls-18" x="34.5" y="0">R</tspan><tspan x="49.6" y="0">CH 2021</tspan><tspan class="cls-19"><tspan x="0" y="42">Acce</tspan><tspan class="cls-37" x="66.36" y="42">p</tspan><tspan x="83.79" y="42">ted into </tspan><tspan class="cls-46" x="193.59" y="42">V</tspan><tspan x="212.64" y="42">entu</tspan><tspan class="cls-20" x="272.51" y="42">r</tspan><tspan x="282.8" y="42">e</tspan><tspan class="cls-47" x="298.61" y="42">W</tspan><tspan x="329.96" y="42">ell </tspan><tspan x="0" y="75">accele</tspan><tspan class="cls-25" x="83.22" y="75">r</tspan><tspan x="93.69" y="75">ato</tspan><tspan class="cls-48" x="136.44" y="75">r</tspan><tspan x="146.4" y="75">, p</tspan><tspan class="cls-20" x="178.47" y="75">r</tspan><tspan x="188.76" y="75">og</tspan><tspan class="cls-49" x="222.99" y="75">r</tspan><tspan x="233.46" y="75">am </tspan><tspan x="0" y="108">funding: up to $25,000</tspan></tspan></text><polyline class="cls-8" points="1812.16 217.37 1607.6 217.37 1607.6 732.04"/><polyline class="cls-4" points="845.38 217.37 640.82 217.37 640.82 732.04"/><polyline class="cls-4" points="1148.66 1.5 944.1 1.5 944.1 732.04"/><text class="cls-28" transform="translate(1504.48 38.7)">FEBRURA<tspan class="cls-43" x="102.47" y="0">R</tspan><tspan x="117.07" y="0">Y 2020</tspan><tspan class="cls-19"><tspan class="cls-34" x="0" y="42">A</tspan><tspan x="21.63" y="42">s</tspan><tspan class="cls-35" x="36.03" y="42">k</tspan><tspan x="50.76" y="42">ed to join NSF Na</tspan><tspan x="284.91" y="42">-</tspan><tspan x="0" y="75">tional I-</tspan><tspan class="cls-20" x="101.88" y="75">C</tspan><tspan x="121.89" y="75">orp</tspan><tspan class="cls-23" x="166.59" y="75">s</tspan><tspan x="180.84" y="75">, p</tspan><tspan class="cls-20" x="212.91" y="75">r</tspan><tspan x="223.2" y="75">og</tspan><tspan class="cls-49" x="257.43" y="75">r</tspan><tspan x="267.9" y="75">am </tspan><tspan x="0" y="108">funding: $50,000</tspan></tspan></text><polyline class="cls-8" points="1689.31 1.5 1484.76 1.5 1484.76 732.04"/><polyline class="cls-1" points="418.24 1.5 213.69 1.5 213.69 648.63"/></g></g></svg>